<?xml version="1.0" encoding="utf-8"?><svg xmlns="http://www.w3.org/2000/svg" xmlns:xlink="http://www.w3.org/1999/xlink"><symbol viewBox="0 0 301 320" id="icon-arrow" xmlns="http://www.w3.org/2000/svg"><path d="M152 4.4c-6.4-6.1-16.5-5.8-22.6.6-6.1 6.4-5.8 16.5.6 22.6L252.7 144H16c-8.8 0-16 7.2-16 16s7.2 16 16 16h236.2L130 292.4c-6.4 6.1-6.6 16.2-.6 22.6 3.1 3.3 7.4 5 11.6 5 4 0 7.9-1.5 11-4.4l139.6-133c6-6 9.4-14.1 9.4-22.6s-3.3-16.6-9.7-22.9L152 4.4z"/></symbol><symbol viewBox="0 0 448 448" id="icon-bead" xmlns="http://www.w3.org/2000/svg"><path d="M448 448V304H56c-4.4 0-8-3.6-8-8V0H0v448h48v-72c0-4.4 3.6-8 8-8h336c4.4 0 8 3.6 8 8v72h48z"/><path d="M104 160h80c4.4 0 8 3.6 8 8v32c0 4.4-3.6 8-8 8h-80c-4.4 0-8-3.6-8-8v-32c0-4.4 3.6-8 8-8zm344 88c0-13.3-10.7-24-24-24H64v64h384v-40z"/></symbol><symbol viewBox="0 0 400 400" id="icon-clock" xmlns="http://www.w3.org/2000/svg"><path fill="#AEC5E0" d="M200 400C89.7 400 0 310.3 0 200S89.7 0 200 0c45 0 89.2 15.3 124.2 43.2 5 4 8.2 9.7 8.9 16.1.7 6.4-1.1 12.6-5.1 17.7-4.6 5.8-11.4 9.1-18.8 9.1-5.4 0-10.7-1.9-14.9-5.2C267.4 59.3 234.7 48 200 48c-83.8 0-152 68.2-152 152s68.2 152 152 152 152-68.2 152-152c0-23.2-5.1-45.5-15-66.1-2.8-5.8-3.2-12.3-1.1-18.3s6.4-10.9 12.2-13.7c3.3-1.6 6.8-2.4 10.4-2.4 9.2 0 17.6 5.3 21.6 13.6 13.2 27.2 19.8 56.4 19.8 87C400 310.3 310.3 400 200 400z"/><path fill="#AEC5E0" d="M351.6 109c-8 3.8-11.3 13.4-7.4 21.4 10.5 21.7 15.8 45.1 15.8 69.6 0 88.2-71.8 160-160 160S40 288.2 40 200 111.8 40 200 40c36.6 0 70.9 11.9 99.3 34.5 6.9 5.5 17 4.4 22.5-2.6 5.5-6.9 4.4-17-2.6-22.5C285.6 22.7 243.2 8 200 8 94.1 8 8 94.1 8 200s86.1 192 192 192 192-86.1 192-192c0-29.3-6.4-57.4-19-83.5-3.9-8-13.5-11.3-21.4-7.5z"/><path fill="#AEC5E0" d="M200 224c-13.2 0-24-10.8-24-24V88c0-13.2 10.8-24 24-24s24 10.8 24 24v88h56c13.2 0 24 10.8 24 24s-10.8 24-24 24h-80z"/><path fill="#AEC5E0" d="M200 72c-8.8 0-16 7.2-16 16v112c0 8.8 7.2 16 16 16h80c8.8 0 16-7.2 16-16s-7.2-16-16-16h-64V88c0-8.8-7.2-16-16-16z"/></symbol><symbol viewBox="0 0 512 512" id="icon-close" xmlns="http://www.w3.org/2000/svg"><path fill="#FF4E2F" d="M415.4 495.4L256 336 96.6 495.4c-22.1 22.1-57.9 22.1-80 0s-22.1-57.9 0-80L176 256 16.6 96.6c-22.1-22.1-22.1-57.9 0-80s57.9-22.1 80 0L256 176 415.4 16.6c22.1-22.1 57.9-22.1 80 0s22.1 57.9 0 80L336 256l159.4 159.4c22.1 22.1 22.1 57.9 0 80s-57.9 22.1-80 0z"/></symbol><symbol viewBox="0 0 455.5 480" id="icon-credit" xmlns="http://www.w3.org/2000/svg"><g fill="#FFF"><path d="M335.5 240V24c0-13.2-10.8-24-24-24h-192c-13.2 0-24 10.8-24 24v96.9c-9.6 2-18.1 7.3-24 15.1-.3.4-.5.8-.7 1.2L4.3 268.5C1 275-.4 282.2.1 289.4l7.4 103.2c.1.4.1.8.2 1.2L23.3 464H7.5v16h152v-16h-15.6l6.6-19.7 14.7-14.6c.6-.6 1.1-1.3 1.4-2.1l8-16c.6-1.1.9-2.3.9-3.6v-40h40.4c4.5 66.1 61.6 116.1 127.7 111.6S459.7 418 455.2 351.9c-4.3-63-56.6-111.9-119.7-111.9zm-80-224c0 2.2-.9 4.2-2.5 5.7-1.4 1.5-3.4 2.4-5.5 2.3h-64c-4.4 0-8-3.6-8-8h80zM152.8 323.6c-.9 1.3-1.4 2.8-1.4 4.4v24c0 1.3.3 2.5.9 3.6l7.1 14.3v36.2l-6.6 13.2-15.1 15c-.9.9-1.5 2-1.9 3.1l-8 24c-.2.8-.4 1.7-.4 2.6h-88c0-.6-.1-1.2-.2-1.8l-15.9-71.4L16 288.2c-.3-4.3.6-8.7 2.5-12.6L84.7 145c2.8-3.5 6.6-6.1 10.8-7.5v133.7c-1.9.5-3.9.8-5.8.8H79.5v16h10.2c10.8 0 21.1-4.4 28.6-12.1l61.6-54.9c6.3-5.7 16-5.4 21.9.6l2.1 2.1c5.4 5.4 6.3 13.8 2 20.2l-53.1 79.7zm15.6 28.4l-1-1.9v-19.7l51.8-77.6c8.4-12.7 6.7-29.6-4-40.4l-2.1-2.1c-12-11.9-31.3-12.5-43.9-1.2l-57.8 51.4V24c0-4.4 3.6-8 8-8h40c0 13.2 10.8 24 24 24h64c13.3 0 24-10.7 24-24h40c4.4 0 8 3.6 8 8v217.2c-56.5 7.7-99.7 54-103.6 110.8h-47.4zm167.1 112c-57.4 0-104-46.6-104-104s46.6-104 104-104 104 46.6 104 104c-.1 57.4-46.6 103.9-104 104z"/><path d="M351.5 352h-8v-32h8c8.8 0 16 7.2 16 16h16c0-17.7-14.3-32-32-32h-8v-16h-16v16h-8c-17.7 0-32 14.3-32 32s14.3 32 32 32h8v32h-8c-8.8 0-16-7.2-16-16h-16c0 17.7 14.3 32 32 32h8v16h16v-16h8c17.7 0 32-14.3 32-32s-14.4-32-32-32zm-24 0h-8c-8.8 0-16-7.2-16-16s7.2-16 16-16h8v32zm24 48h-8v-32h8c8.8 0 16 7.2 16 16s-7.2 16-16 16zm-88-300.7l5.7-5.6-11.4-11.4-4.5 4.6c-22.7-20.8-58-19.2-78.8 3.6s-19.2 58 3.6 78.8 58 19.2 78.8-3.6c16.6-18.3 19.3-45.3 6.6-66.4zm-48 68.7c-22.1.1-40.1-17.7-40.2-39.8-.1-22.1 17.7-40.1 39.8-40.2 10-.1 19.6 3.6 27 10.2l-26.5 26.5-10.3-10.4-11.4 11.4 16 16c3.2 3.1 8.2 3.1 11.4 0l30.5-30.6c9.4 19.9 1 43.6-18.9 53-5.6 2.6-11.5 3.9-17.4 3.9z"/></g></symbol><symbol viewBox="0 0 30 30" id="icon-facebook" xmlns="http://www.w3.org/2000/svg"><path d="M27.8 0H2.2C1 0 0 1 0 2.2v25.7C0 29 1 30 2.2 30H16V18.4h-3.9v-4.5H16v-3.3c0-3.9 2.4-6 5.8-6 1.7 0 3.1.1 3.5.2v4.1H23c-1.9 0-2.2.9-2.2 2.2V14h4.5l-.6 4.5h-3.9V30h7.1c1.2 0 2.2-1 2.2-2.2V2.2C30 1 29 0 27.8 0z"/></symbol><symbol id="icon-foreign" viewBox="0 0 512 512" xml:space="preserve" xmlns="http://www.w3.org/2000/svg"><style>.agst0{fill:#fff}</style><path class="agst0" d="M488.7 0H302.5c-12.9 0-23.3 10.4-23.3 23.3s10.4 23.3 23.3 23.3h130L193 286.1c-9.1 9.1-9.1 23.8 0 32.9 4.5 4.5 10.5 6.8 16.5 6.8s11.9-2.3 16.5-6.8L465.5 79.5v130c0 12.9 10.4 23.3 23.3 23.3s23.3-10.4 23.3-23.3V23.3C512 10.4 501.6 0 488.7 0z"/><path class="agst0" d="M395.6 232.7c-12.9 0-23.3 10.4-23.3 23.3v209.5H46.5V139.6H256c12.9 0 23.3-10.4 23.3-23.3S268.9 93.1 256 93.1H23.3C10.4 93.1 0 103.5 0 116.4v372.4C0 501.6 10.4 512 23.3 512h372.4c12.9 0 23.3-10.4 23.3-23.3V256c-.1-12.9-10.5-23.3-23.4-23.3z"/></symbol><symbol viewBox="0 0 512 512" id="icon-furniture" xmlns="http://www.w3.org/2000/svg"><path d="M393.4 296.9c-1.9-1.9-4.4-2.9-7.1-2.9-2.6 0-5.2 1.1-7.1 2.9-1.9 1.9-2.9 4.4-2.9 7.1s1.1 5.2 2.9 7.1c1.9 1.9 4.4 2.9 7.1 2.9s5.2-1.1 7.1-2.9c1.9-1.9 2.9-4.4 2.9-7.1s-1-5.2-2.9-7.1z"/><path d="M502 0H290c-5.5 0-10 4.5-10 10v218c-12-11.1-28.1-17.9-45.8-17.9H125.3c-37.2 0-67.5 30.3-67.5 67.5v3.9c-4.9-2-10.2-3.1-15.8-3.1-23.2 0-42 18.8-42 42v.9c0 14.9 8 27.9 20 34.9V402c0 35.3 26.2 64.5 60.2 69.3l-11.1 27c-1.3 3.1-.9 6.6.9 9.4 1.9 2.8 5 4.4 8.3 4.4h44c3.2 0 6.2-1.5 8.1-4.1l26-35.9H203l26 35.9c1.9 2.6 4.9 4.1 8.1 4.1h44c3.3 0 6.4-1.7 8.3-4.4 1.9-2.8 2.2-6.3.9-9.4l-11.1-27c34-4.8 60.2-34 60.2-69.3v-45.8c12-7 20-20.1 20-34.9v-.9c0-23.2-18.8-42-42-42-5.6 0-10.9 1.1-15.8 3.1v-3.9c0-3.9-.4-7.8-1-11.5H492v28h-67.7c-5.5 0-10 4.5-10 10s4.5 10 10 10H502c5.5 0 10-4.5 10-10V10c0-5.5-4.5-10-10-10zM77.8 277.5c0-26.2 21.3-47.5 47.5-47.5h108.9c26.2 0 47.5 21.3 47.5 47.5v20.8c-4 6.4-6.3 13.9-6.3 22v16.9c-6.4-4-13.9-6.2-22-6.2H106c-8.1 0-15.6 2.3-22 6.2v-16.9c0-8.1-2.3-15.6-6.3-22v-20.8zm102 107.6c5.5 0 10-4.5 10-10V351h63.8c12.1 0 22 9.9 22 22v24.9c0 5.5-4.5 10-10 10H94c-5.5 0-10-4.5-10-10V373c0-12.1 9.9-22 22-22h63.8v24.1c0 5.6 4.4 10 10 10zM117.2 492h-24l8.2-20.1h30.3L117.2 492zm125.1 0l-14.5-20.1H258l8.2 20.1h-23.9zm75.2-193.7c12.1 0 22 9.9 22 22v.9c0 11.3-9.2 20.5-20.5 20.5-5.5 0-10 4.5-10 10s4.5 10 10 10h.5v40.2c0 27.6-22.4 50-50 50H90c-27.6 0-50-22.4-50-50v-40.2h.5c5.5 0 10-4.5 10-10s-4.5-10-10-10c-11.3 0-20.5-9.2-20.5-20.5v-.9c0-12.1 9.9-22 22-22s22 9.9 22 22v77.6c0 16.5 13.5 30 30 30h171.5c16.5 0 30-13.5 30-30v-77.6c0-12.1 9.9-22 22-22zM492 246H300v-53.4L426.2 66.4c3.9-3.9 3.9-10.2 0-14.1s-10.2-3.9-14.1 0l-112 112V20h192v226z"/><path d="M467.1 87.9c-3.9-3.9-10.2-3.9-14.1 0l-88.5 88.5c-3.9 3.9-3.9 10.2 0 14.1 2 2 4.5 2.9 7.1 2.9s5.1-1 7.1-2.9l88.5-88.5c3.8-3.8 3.8-10.2-.1-14.1zm-112 112c-1.9-1.9-4.4-2.9-7.1-2.9s-5.2 1.1-7.1 2.9-2.9 4.4-2.9 7.1c0 2.6 1.1 5.2 2.9 7.1s4.4 2.9 7.1 2.9 5.2-1.1 7.1-2.9c1.9-1.9 2.9-4.4 2.9-7.1s-1-5.2-2.9-7.1z"/></symbol><symbol viewBox="0 0 499 499" id="icon-globe" xmlns="http://www.w3.org/2000/svg"><path fill="#AEC5E0" d="M215 223.9c5.8-39.6 26.4-78.5 40.9-101.9 14.4 23.3 34.9 62.2 40.7 101.9H215zm-96.1 0c7.8-52.1 44.6-95.1 94.4-111.2-16.8 29.3-35.1 69.3-39.9 111.2h-54.5zm219.4 0c-4.8-41.9-23-82-39.8-111.3 49.9 16.1 86.7 59.1 94.5 111.3h-54.7zm-82.4 143.2c-14.5-23.3-35.1-62.2-40.9-101.8h81.6c-5.8 39.6-26.3 78.5-40.7 101.8zm-42.7 9.4c-49.8-16.1-86.5-59.2-94.4-111.2h54.4c4.9 41.9 23.2 81.9 40 111.2z"/><path fill="#AEC5E0" d="M42.9 372.4l-1.2-2C15.2 325.4 3.6 271.9 9 219.8c5.9-55.7 31-108.2 70.7-147.9C126.1 25.6 187.8 0 253.4 0s127.3 25.6 173.7 71.9C473.5 118.3 499 180 499 245.6s-25.6 127.3-71.9 173.7c-39.7 39.7-92.2 64.7-147.9 70.6-8.5.9-17.1 1.3-25.6 1.3-44.1 0-87.3-11.8-125-34l-2-1.2L0 499l42.9-126.6zM256 64.5c-99.3 0-180 80.8-180 180s80.8 180 180 180 180-80.8 180-180-80.8-180-180-180z"/><path fill="#AEC5E0" d="M298.6 376.5c16.7-29.3 34.9-69.3 39.8-111.3h54.7c-7.9 52.2-44.7 95.3-94.5 111.3z"/></symbol><symbol viewBox="0 0 512 471.5" id="icon-heart" xmlns="http://www.w3.org/2000/svg"><path d="M241.5 162.5c-25.6-15.8-55-22.5-85-19.2-43.7 4.8-82.3 30.9-103.3 69.7-2.6 4.9-.8 10.9 4 13.6 1.5.8 3.1 1.2 4.7 1.2 3.6 0 7-1.9 8.8-5.2 17.9-33.1 50.7-55.2 87.9-59.3 25.5-2.8 50.5 2.8 72.3 16.3 4.7 2.9 10.9 1.4 13.8-3.2 2.9-4.8 1.5-11-3.2-13.9zm-189.2 97H10c-5.5 0-10 4.5-10 10s4.5 10 10 10h42.3c5.5 0 10-4.5 10-10s-4.4-10-10-10zM458.9 213c-21-38.8-59.6-64.9-103.3-69.7-17.6-1.9-35-.5-51.8 4.4-5.3 1.5-8.4 7.1-6.8 12.4 1.5 5.3 7.1 8.4 12.4 6.8 14.2-4.1 29-5.4 44-3.7 37.2 4.1 70.1 26.3 87.9 59.3 1.8 3.3 5.3 5.2 8.8 5.2 1.6 0 3.2-.4 4.7-1.2 4.9-2.6 6.7-8.6 4.1-13.5zm43.1 46.5h-42.3c-5.5 0-10 4.5-10 10s4.5 10 10 10H502c5.5 0 10-4.5 10-10s-4.5-10-10-10z"/><path d="M502 366h-50.2c-23.7 0-46.2 9.2-63.5 26-30.5 29.5-68.8 51.1-105.1 59.2-1 .2-2.1.3-3.1.3-6.5 0-12.2-4.6-13.6-10.9-.8-3.6-.2-7.4 1.8-10.6s5.1-5.3 8.8-6.2c34.4-7.7 65.8-24.9 90.9-49.8 14.1-14 24.6-30.9 30.1-48.9 2.9-9.5 4.4-18.7 4.4-27.4 0-17-7-33.2-19.7-45.7-13.9-13.6-33-21.1-52.4-20.7-15.3.3-29.7 5.5-41.8 14.9-3 2.3-6.7 3.3-10.5 2.8s-7.1-2.4-9.4-5.5c-4.6-6.1-3.2-14.9 3-19.7 17.4-13.4 38.2-20.5 60.2-20.5 31.3 0 61.1 15.2 79.7 40.6 3.3 4.5 9.5 5.4 14 2.2 4.5-3.3 5.4-9.5 2.2-14-22.3-30.5-58.1-48.8-95.8-48.8-26.5 0-51.6 8.5-72.5 24.7-1.3 1-2.5 2-3.5 3.2-1.1-1.1-2.3-2.2-3.5-3.2-20.9-16.2-46-24.7-72.5-24.7-37.7 0-73.5 18.2-95.8 48.8-3.3 4.5-2.3 10.7 2.2 14 4.5 3.3 10.7 2.3 14-2.2 18.6-25.4 48.3-40.6 79.7-40.6 22 0 42.9 7.1 60.2 20.5 6.2 4.8 7.5 13.7 3 19.7-2.3 3-5.6 5-9.4 5.5-3.8.5-7.5-.5-10.5-2.8-12-9.4-26.5-14.6-41.8-14.9-19.4-.4-38.5 7.1-52.4 20.7-12.7 12.4-19.7 28.7-19.7 45.7 0 8.7 1.5 17.9 4.4 27.4 5.6 17.9 16 34.8 30.1 48.9 25.1 24.9 56.5 42.1 90.9 49.8 3.6.8 6.8 3 8.8 6.2s2.7 6.9 1.8 10.6c-1.4 6.3-7.2 10.9-13.6 10.9-1 0-2.1-.1-3.1-.3-36.3-8.1-74.6-29.7-105.1-59.2-17.3-16.7-39.9-26-63.5-26H10c-5.5 0-10 4.5-10 10s4.5 10 10 10h50.2c18.4 0 36.1 7.2 49.6 20.3 33 32 74.8 55.4 114.6 64.3 2.4.5 5 .8 7.4.8 9.2 0 17.8-3.8 24.1-10.1 6.2 6.3 14.8 10.1 24.1 10.1 2.5 0 5-.3 7.4-.8 39.8-8.9 81.6-32.4 114.6-64.3 13.5-13.1 31.2-20.3 49.6-20.3H502c5.5 0 10-4.5 10-10s-4.5-10-10-10zm-246 47.5c-4.5-4.6-10.3-7.8-16.7-9.2-30.7-6.9-58.8-22.3-81.2-44.5-11.8-11.8-20.5-25.8-25.1-40.6-2.3-7.6-3.5-14.8-3.5-21.5 0-11.6 4.9-22.7 13.7-31.4 10.1-9.8 23.9-15.3 37.9-15 10.9.2 21.3 3.9 29.9 10.7 7.3 5.7 16.3 8.1 25.4 6.9 7.5-1 14.3-4.4 19.5-9.6 5.3 5.3 12 8.6 19.5 9.6 9.1 1.2 18.1-1.2 25.4-6.9 8.6-6.7 19-10.4 29.9-10.7 14-.3 27.9 5.1 37.9 15 8.8 8.7 13.7 19.8 13.7 31.4 0 6.7-1.2 13.9-3.5 21.5-4.6 14.8-13.3 28.8-25.1 40.6-22.4 22.3-50.5 37.6-81.2 44.5-6.2 1.5-12 4.7-16.5 9.2zM256 0c-5.5 0-10 4.5-10 10v59.5c0 5.5 4.5 10 10 10s10-4.5 10-10V10c0-5.5-4.5-10-10-10zm-56.7 85.4l-23.9-23.9c-3.9-3.9-10.2-3.9-14.1 0-3.9 3.9-3.9 10.2 0 14.1l23.9 23.9c2 1.9 4.5 2.9 7.1 2.9 2.6 0 5.1-1 7.1-2.9 3.8-3.9 3.8-10.2-.1-14.1zm-53.2-53.2c-4.1-3.7-10.4-3.4-14.1.7-3.7 4.1-3.4 10.4.7 14.1 1.9 1.7 4.3 2.6 6.7 2.6 2.7 0 5.4-1.1 7.4-3.3 3.7-4 3.4-10.4-.7-14.1zm233 .9c-3.9-3.9-10.2-3.9-14.1 0L311.2 87c-3.9 3.9-3.9 10.2 0 14.1 2 2 4.5 2.9 7.1 2.9 2.6 0 5.1-1 7.1-2.9l53.8-53.8c3.8-3.9 3.8-10.3-.1-14.2z"/><circle cx="275.9" cy="171" r="10"/></symbol><symbol viewBox="0 0 30 30" id="icon-instagram" xmlns="http://www.w3.org/2000/svg"><path d="M22 5.3H8C6.5 5.3 5.3 6.5 5.3 8v14c0 1.5 1.2 2.6 2.6 2.6H22c1.5 0 2.6-1.2 2.6-2.6V8c.1-1.5-1.1-2.7-2.6-2.7zm-7 15.9c-3.4 0-6.2-2.8-6.2-6.2s2.8-6.2 6.2-6.2 6.2 2.8 6.2 6.2-2.8 6.2-6.2 6.2zm6.2-10.6c-1 0-1.8-.8-1.8-1.8S20.2 7 21.2 7s1.8.8 1.8 1.8-.9 1.8-1.8 1.8z"/><path d="M15 10.6c-2.4 0-4.4 2-4.4 4.4s2 4.4 4.4 4.4 4.4-2 4.4-4.4-2-4.4-4.4-4.4z"/><path d="M26.7 0H3.1C.7 0 0 .8 0 3.2v23.5C0 29.1.7 30 3.1 30h23.7c2.4 0 3.2-.9 3.2-3.3V3.2C30 .8 29.1 0 26.7 0zm-.3 22c0 2.4-2 4.4-4.4 4.4H8c-2.4 0-4.4-2-4.4-4.4V8c0-2.4 2-4.4 4.4-4.4h14c2.4 0 4.4 2 4.4 4.4v14z"/></symbol><symbol viewBox="0 0 26 19.5" id="icon-mail" xmlns="http://www.w3.org/2000/svg"><path d="M23.8 0H2.2C1 0 0 1 0 2.2v15.2c0 1.2 1 2.2 2.2 2.2h21.7c1.2 0 2.2-1 2.2-2.2V2.2C26 1 25 0 23.8 0zM2.2 1.1h21.9c-1.9 1.7-8.1 7.4-10.3 9.4-.2.2-.4.3-.8.3s-.6-.2-.8-.3C10 8.5 3.8 2.8 1.9 1.1h.3zM1.1 17.3V2.2c0-.1 0-.2.1-.3C2.6 3.2 7 7.2 9.8 9.7c-2.8 2.4-7.1 6.5-8.6 7.9-.1-.1-.1-.2-.1-.3zm22.7 1.1H2c1.5-1.4 5.9-5.6 8.6-7.9.4.3.7.6.9.9.4.4 1 .6 1.5.6s1.1-.2 1.5-.6c.3-.2.6-.5.9-.9 2.8 2.4 7.1 6.5 8.6 7.9h-.2zm1.1-1.1c0 .1 0 .2-.1.3-1.4-1.4-5.8-5.5-8.6-7.9 2.8-2.6 7.2-6.5 8.6-7.8 0 .1.1.2.1.3v15.1z"/></symbol><symbol viewBox="0 0 278.5 210.1" id="icon-mail_v2" xmlns="http://www.w3.org/2000/svg"><path d="M0 210.1V0h278.5v210.1H0zM45.5 183h187.4l-58.2-58.9-35.5 35.9-35.5-35.9L45.5 183zm-18.9-19l58.3-59-58.3-59v118zm167-58.9l58.3 59v-118l-58.3 59zm-54.4 16.8l93.7-94.8H45.5l93.7 94.8z"/></symbol><symbol viewBox="0 0 496 496" id="icon-nature" xmlns="http://www.w3.org/2000/svg"><path d="M496 200c0-43.5-12.7-85.5-36.8-121.7L408 1.6l-25.5 38.2C342.4 13.8 296.1 0 248 0c-16.5 0-33.1 1.7-49.2 4.9-7-3.1-14.7-4.9-22.8-4.9-28.4 0-51.9 21.3-55.5 48.8-4.4.9-8.6 2.4-12.5 4.7-6.1-3.6-12.9-5.5-20-5.5-16.2 0-30.5 9.8-36.7 24.3C35.9 74.6 24 88 24 104c0 8.3 3.3 15.8 8.5 21.5C11.3 162.7 0 204.9 0 248c0 42.8 11.1 84.8 32 121.8V384c0 8.8 7.2 16 16 16v32H32v16h69.5c42.7 31.4 93.3 48 146.5 48 136.8 0 248-111.3 248-248 0-10.1-.6-20.2-1.8-30.1 1.2-5.8 1.8-11.8 1.8-17.9zM445.8 87.2C468.2 120.7 480 159.7 480 200c0 37-28.1 67.5-64 71.5v-38.2l1.3-3.8c9-26.9 24.3-51.8 44.4-71.8l-11.3-11.3c-13.6 13.6-25.2 29.2-34.3 46.1V88h-16v86.9c-9.5-14.3-21.4-26.9-35.2-37.3l-9.6 12.8c19.8 14.8 35.1 34.8 44.2 57.7l.6 1.4v62c-35.9-4-64-34.5-64-71.5 0-40.3 11.8-79.3 34.2-112.8L408 30.4l37.8 56.8zM176 16c22.1 0 40 17.9 40 40 0 17-10.5 31.7-25.9 37.4-3.9-11-13.6-19.3-25.4-21.1-5-11.9-15.5-20.5-28-23.3 3.3-18.7 19.6-33 39.3-33zM55.5 88l7.8.4 1.6-6.3C67.6 71.4 77.1 64 88 64c5.4 0 10.6 1.9 15 5.4l5 4.1 5-4.1c4.4-3.6 9.6-5.4 15-5.4 10.9 0 20.4 7.4 23.2 18.1l1.6 6.3 6.5-.3c.4 0 .8-.1.7-.1 8.8 0 16 7.2 16 16s-7.2 16-16 16H56c-8.8 0-16-7.2-16-16s7.2-16 15.5-16zM80 288v-24c0-4.4 3.6-8 8-8h192c4.4 0 8 3.6 8 8v40H80v-16zm208 64v-24c0-4.4 3.6-8 8-8s8 3.6 8 8v24h-16zm-16 0H96v-24c0-2.8-.6-5.5-1.5-8h179c-.9 2.5-1.5 5.2-1.5 8v24zM72 320c4.4 0 8 3.6 8 8v24H64v-24c0-4.4 3.6-8 8-8zm248 48v16H48v-16h272zm-32 64v-32h16v32h-16zm-16-32v32H96v-32h176zm-208 0h16v32H64v-32zm66.7 48H336v-16h-16v-32c8.8 0 16-7.2 16-16v-16c0-8.8-7.2-16-16-16v-24c0-10.4-6.7-19.2-16-22.5V264c0-13.2-10.8-24-24-24H88c-13.2 0-24 10.8-24 24v41.5c-9.3 3.3-16 12.1-16 22.5v24c-2.4 0-4.6.5-6.6 1.5C24.8 321 16 284.8 16 248c0-40 10.4-79.2 29.9-113.8 3.2 1.1 6.5 1.8 10.1 1.8h104c15.7 0 28.7-11.3 31.4-26.2C215.3 103 232 81.3 232 56c0-14.6-5.7-27.9-14.9-37.9 10.2-1.4 20.5-2.1 30.9-2.1 44.9 0 88.2 12.9 125.6 37.1l-16.8 25.2C332.7 114.5 320 156.5 320 200c0 45.8 35.2 83.5 80 87.6V423c-10 8.7-20.6 16.6-32 23.4l-2.6 1.5c-34.5 20.3-74.6 32-117.4 32-41.8.1-81.9-11-117.3-31.9zM416 407.7V287.6c26.4-2.4 49.4-16.5 63.9-37.1-.6 60.9-24.8 116.2-63.9 157.2z"/></symbol><symbol viewBox="0 0 534.4 535.2" id="icon-pen" xmlns="http://www.w3.org/2000/svg"><path d="M32.4 392.7l.4-1.4c5.2-15.5 14-29.9 25.6-41.4L380.6 26.4c17-17 39.6-26.4 63.7-26.4 24 0 46.6 9.3 63.6 26.3s26.4 39.6 26.4 63.7-9.3 46.7-26.3 63.7L185.8 477.2c-11.6 11.6-25.9 20.4-41.5 25.6l-1.4.5L0 535.2l32.4-142.5zm54.5 61.6l19.8-4.4-21-21-4.5 19.7 5.7 5.7zm72.9-36l305.8-307c5.7-5.7 8.8-13.3 8.8-21.3s-3.1-15.6-8.8-21.3c-5.7-5.6-13.2-8.8-21.2-8.8-8.1 0-15.6 3.1-21.3 8.8l-4.7 4.7-42.3 42.5-16.3 16.4-42.3 42.5-200.2 201 42.5 42.5zm-.2 113.3l59.8-60h315v60H159.6z"/></symbol><symbol viewBox="0 0 468 468" id="icon-phone" xmlns="http://www.w3.org/2000/svg"><path d="M66.9 232.5c-9.9 0-19-5.8-23.3-14.8C14.9 158.3-.2 92 0 26 0 11.7 11.7 0 26 0h96c14.3 0 26 11.7 26 26-.2 43.8 9.8 87.8 29 127.1 6.3 12.9 1 28.5-11.9 34.8l-86.8 42c-3.5 1.7-7.4 2.6-11.3 2.6h-.1zM52.8 52c2.6 41.1 11.7 81.1 27.1 119.3l39.9-19.3c-12.7-32-20.4-65.6-22.9-100H52.8z"/><path d="M67 222.5c-6.1 0-11.7-3.5-14.4-9.1C24.4 154.9 9.8 90.9 10 26c0-8.8 7.2-16 16-16h96c8.8 0 16 7.2 16 16-.2 45.6 10.1 90.6 30 131.5 3.9 7.9.6 17.5-7.3 21.4h-.1l-86.6 42c-2.2 1.1-4.6 1.6-7 1.6zM42.3 42c1.8 49.2 12.8 97.7 32.4 142.9l57.9-28c-15.6-36.4-24.5-75.4-26.3-115 .1.1-64 .1-64 .1zM441 468c-65.6 0-131.6-15.1-190.7-43.6-12.9-6.2-18.4-21.7-12.2-34.7l42-86.9c4.3-8.9 13.5-14.7 23.4-14.7 3.9 0 7.6.8 11.1 2.5l.2.1.2.1c39 19 82.5 29.1 125.8 29.1h1.2c14.4 0 26 11.7 26 26v96c0 14.3-11.7 26-26 26l-1 .1zm-144.3-79.9c38.2 15.3 78.3 24.4 119.3 27.1v-44c-34.4-2.5-68-10.1-100.1-22.9l-19.2 39.8z"/><path d="M442 458c-64.9.2-128.9-14.4-187.4-42.6-8-3.8-11.3-13.4-7.5-21.3 0 0 0-.1.1-.1l41.9-86.7c3.9-8 13.4-11.3 21.4-7.4h.1c40.9 20 86 30.3 131.5 30.1 8.8 0 16 7.2 16 16v96c-.1 8.8-7.3 16-16.1 16zm-158.9-64.7c45.2 19.6 93.7 30.6 142.9 32.4v-64c-39.6-1.7-78.6-10.6-115-26.3l-27.9 57.9z"/><path d="M250.2 424.4c-44.9-21.7-85.5-50.6-120.8-85.9-35.3-35.3-64.2-75.9-85.9-120.8l-4.4-9L86 186.2l4.4 9c38.4 79.2 103.2 144 182.5 182.5l9 4.4-22.6 46.8-9.1-4.5z"/><path d="M254.6 415.4a435.721 435.721 0 01-202-202l28.8-13.9C121 281.1 186.9 347 268.5 386.6l-13.9 28.8z"/></symbol><symbol viewBox="0 0 512 486.4" id="icon-print" xmlns="http://www.w3.org/2000/svg"><path d="M469.3 102.4h-34.1V42.7c0-23.6-19.1-42.7-42.7-42.7h-273C95.9 0 76.8 19.1 76.8 42.7v59.7H42.7C19.1 102.4 0 121.5 0 145.1V384c0 23.2 18.5 42.2 41.7 42.7l-11.4 22.7c-6.3 12.7-1.2 28 11.5 34.3 3.6 1.8 7.5 2.7 11.5 2.7h405.5c14.1 0 25.6-11.5 25.6-25.6 0-4-.9-7.9-2.7-11.4l-11.3-22.7c23.2-.5 41.7-19.5 41.7-42.7V145.1c-.1-23.6-19.2-42.7-42.8-42.7zm-42.6 341.3H85.3c-4.7 0-8.5-3.8-8.5-8.5 0-2.9 1.5-5.5 3.7-7l47.6-62c.4-4.4 4-7.8 8.5-7.8h238.9c4.5 0 8.2 3.5 8.5 7.9l48.3 62.5c1.8 1.6 2.9 3.8 2.9 6.4 0 4.7-3.8 8.5-8.5 8.5zm17-70.3l-26.5-53c-1.4-2.9-4.4-4.7-7.6-4.7H102.4c-3.2 0-6.2 1.8-7.6 4.7l-26.5 53v-66.2c0-4.7 3.8-8.5 8.5-8.5h358.4c4.7 0 8.5 3.8 8.5 8.5v66.2z"/></symbol><symbol viewBox="0 0 504 462.2" id="icon-room" xmlns="http://www.w3.org/2000/svg"><path d="M0 462.2V0h419.4v221.9H504v240.3H0zm133.7-22.4h347.9V244.4H314.8v-20.3h-23.3v-22.4h23.3V165h22.4v56.9h59.7V22.4h-59.7v67.1h-22.4V22.4H189.2V61h-22.4V22.4h-43.3v30.4c0 20.2-16.4 36.6-36.6 36.6h-8.2V165h88.1v-28.5h22.4v65.1h23.3V224h-23.3v103h-22.4V187.4H78.7v196.2h55v56.2zm-111.3 0h88.9V406h-55V277.8H22.4v162zm0-184.4h33.8v-68H22.4v68zm0-90.4h33.8V22.4H22.4V165zm56.3-98h8.2c7.8 0 14.2-6.4 14.2-14.2V22.4H78.7V67z"/><path d="M257.1 415.5V268.7h80.2v11.2l3.1.7c13.7 3.2 26.1 11 34.9 22 9 11.2 13.9 25.2 13.9 39.5s-5 28.4-13.9 39.5c-8.9 11-21.3 18.8-34.9 22l-3.1.7v11.2h-80.2zm22.4-22.4h35.3v-102h-35.3v102zm57.7-11.3l5.7-2.6c14.5-6.6 23.9-21.2 23.9-37.1 0-15.9-9.4-30.5-23.9-37.1l-5.7-2.6v79.4zm79-97.9h22.4v116.4h-22.4z"/></symbol><symbol viewBox="0 0 471.8 512" id="icon-settings" xmlns="http://www.w3.org/2000/svg"><path d="M449.4 127.6h-5.2c-3.1-10.8-7.4-21.1-12.8-30.9l3.7-3.7c4.2-4.2 6.5-9.8 6.5-15.8s-2.3-11.6-6.5-15.8l-24.6-24.6c-4.2-4.2-9.9-6.6-15.9-6.6s-11.6 2.3-15.8 6.6l-3.7 3.7c-9.8-5.5-20.1-9.8-30.9-12.8v-5.2c0-12.4-10.1-22.4-22.4-22.4H287c-12.4 0-22.4 10.1-22.4 22.4v5.2c-10.8 3.1-21.1 7.4-30.9 12.8l-3.7-3.7c-4.2-4.2-9.9-6.6-15.9-6.6s-11.6 2.3-15.8 6.6l-24.6 24.6c-4.2 4.2-6.5 9.8-6.5 15.8s2.3 11.6 6.5 15.8l3.7 3.7c-5.5 9.8-9.8 20.1-12.8 30.9h-5.2c-12.4 0-22.4 10.1-22.4 22.4v34.8c0 12.4 10.1 22.4 22.4 22.4h5.2c3.1 10.7 7.3 21.1 12.8 30.9l-3.7 3.7c-4.2 4.2-6.5 9.8-6.5 15.8s2.3 11.6 6.5 15.8l24.6 24.6c4.2 4.2 9.9 6.6 15.9 6.6s11.6-2.3 15.8-6.6l3.7-3.7c9.8 5.5 20.2 9.8 30.9 12.8v5.2c0 12.4 10.1 22.4 22.4 22.4h34.8c12.4 0 22.4-10.1 22.4-22.4v-5.2c10.8-3.1 21.1-7.3 30.9-12.8l3.7 3.7c4.2 4.2 9.9 6.6 15.9 6.6s11.6-2.3 15.8-6.6l24.6-24.6c4.2-4.2 6.5-9.8 6.5-15.8s-2.3-11.6-6.5-15.8l-3.7-3.7c5.4-9.8 9.7-20.1 12.8-30.9h5.2c12.4 0 22.4-10.1 22.4-22.4V150c0-12.4-10.1-22.4-22.4-22.4zM324.2 312.4c0 1.3-1.1 2.4-2.4 2.4H287c-1.3 0-2.4-1.1-2.4-2.4v-76c0-4.2-2.6-7.9-6.5-9.4-26.9-10-44.9-35.8-44.9-64.4 0-22.6 11.3-43.8 30.1-56.7.8-.6 1.6-1 2.2-1.4 0 1.3-.1 2.5-.2 3.2-.1 1-.1 1.8-.1 2.6v47.2c0 21.7 16.9 39.8 38.5 41.2h1.3c21.6-1.4 38.5-19.5 38.5-41.2v-47.2c0-.8-.1-1.6-.1-2.6 0-.6-.1-1.9-.2-3.2.7.4 1.4.9 2.2 1.4 18.9 12.9 30.1 34.1 30.1 56.7 0 28.5-18 54.4-44.9 64.4-3.9 1.5-6.5 5.2-6.5 9.4v63l.1 13zm127.6-127.6c0 1.3-1.1 2.4-2.4 2.4h-13c-4.7 0-8.7 3.2-9.8 7.8-3.2 14-8.7 27.2-16.3 39.3-2.5 4-1.9 9.1 1.4 12.4l9.2 9.2c.6.6.7 1.3.7 1.7 0 .4-.1 1.1-.7 1.7l-24.6 24.6c-.6.6-1.2.7-1.7.7s-1.1-.1-1.7-.7l-9.2-9.2c-3.3-3.3-8.5-3.9-12.4-1.4-8.5 5.4-17.6 9.7-27.1 12.9V243c31-14.4 51.4-45.9 51.4-80.4 0-29.2-14.5-56.6-38.8-73.2-3.7-2.5-15-10.3-25-4.6-9.7 5.6-8.8 18.7-8.3 24.3 0 .5.1.9.1 1.1v47.2c0 10.9-8.4 20.1-19.2 21.2-10.8-1.1-19.2-10.2-19.2-21.2v-47.1c0-.3 0-.7.1-1.2.4-5.6 1.4-18.7-8.3-24.3-9.9-5.7-21.2 2-25 4.6-24.3 16.6-38.8 44-38.8 73.2 0 34.5 20.4 66 51.4 80.4v43.2c-9.5-3.2-18.6-7.5-27.1-12.9-1.6-1-3.5-1.5-5.3-1.5-2.6 0-5.1 1-7.1 2.9l-9.2 9.2c-.6.6-1.2.7-1.7.7s-1.1-.1-1.7-.7l-24.6-24.6c-.6-.6-.7-1.3-.7-1.7 0-.4.1-1.1.7-1.7l9.2-9.2c3.3-3.3 3.9-8.5 1.4-12.4-7.7-12.2-13.2-25.4-16.3-39.3-1-4.6-5.1-7.8-9.8-7.8h-13c-1.3 0-2.4-1.1-2.4-2.4V150c0-1.3 1.1-2.4 2.4-2.4h13c4.7 0 8.7-3.2 9.8-7.8 3.1-13.9 8.6-27.1 16.3-39.3 2.5-4 1.9-9.1-1.4-12.4l-9.2-9.2c-.6-.6-.7-1.3-.7-1.7s.1-1.1.7-1.7l24.6-24.6c.6-.6 1.2-.7 1.7-.7s1.1.1 1.7.7l9.2 9.2c3.3 3.3 8.5 3.9 12.4 1.4 12.2-7.7 25.4-13.2 39.4-16.3 4.6-1 7.8-5.1 7.8-9.8v-13c0-1.3 1.1-2.4 2.4-2.4h34.8c1.3 0 2.4 1.1 2.4 2.4v13c0 4.7 3.2 8.7 7.8 9.8 14 3.2 27.2 8.6 39.3 16.3 4 2.5 9.1 1.9 12.4-1.4l9.2-9.2c.6-.6 1.2-.7 1.7-.7s1.1.1 1.7.7L421 75.5c.6.6.7 1.3.7 1.7s-.1 1.1-.7 1.7l-9.2 9.2c-3.3 3.3-3.9 8.5-1.4 12.4 7.6 12.1 13.1 25.3 16.3 39.3 1 4.6 5.1 7.8 9.8 7.8h13c1.3 0 2.4 1.1 2.4 2.4l-.1 34.8zm-89.1 255.5c-3.9 3.9-3.9 10.2 0 14.1 2 2 4.5 2.9 7.1 2.9s5.1-1 7.1-2.9c3.9-3.9 3.9-10.2 0-14.1s-10.3-3.9-14.2 0z"/><path d="M409 343.4l-79.4 40.8c-6.7-7-16.2-11.3-26.6-11.3h-54.4c-3 0-3.8-.2-3.8-.3-.4-.2-1.8-1.5-3-2.6l-.5-.5c-44-41.4-81.2-38.8-123.5-22.1-6.8 2.7-7 2.7-13.8 3H91.7c-3.5-10.6-13.5-18.2-25.2-18.2h-40c-14.6 0-26.5 12-26.5 26.6v105c0 14.6 11.9 26.5 26.5 26.5h40c11.7 0 21.7-7.6 25.2-18.2h22.5c2 0 2 0 4.3.7.8.2 1.9.5 3.2.9l103.5 27.7c4.6 1.2 8.7 2.4 12.8 3.6 13.3 3.8 24.4 7.1 36 7.1 13.1 0 26.9-4.1 44.9-16.2.1-.1.2-.1.3-.2l19.8-14.1c4.5-3.2 5.5-9.5 2.3-13.9-3.2-4.5-9.5-5.5-13.9-2.3l-19.6 14c-26.2 17.4-37.3 14.2-64.2 6.4-4.1-1.2-8.4-2.4-13.2-3.7l-103.5-27.7c-1.2-.3-2.2-.6-2.9-.8-3.8-1.1-5.2-1.4-9.7-1.4H93.1v-81.6h11.8c8.4-.4 10.7-.6 20.3-4.4 37.1-14.7 65.8-16.4 102.4 18.1l.5.5c6.3 5.9 9.9 8.3 20.5 8.3H303c6.4 0 12 3.5 14.9 8.8 0 .1.1.1.1.2 1.3 2.4 2 5.1 2 8.1 0 9.4-7.6 17-17 17h-88.2c-5.5 0-10 4.5-10 10s4.5 10 10 10H303c20.4 0 37-16.6 37-37 0-2.8-.3-5.5-.9-8.1l79-40.6c7.5-3.8 17.7-3.4 22.8 4.8 4.5 7.3 2 16.9-5.7 22.5l-34.7 24.7c-4.5 3.2-5.5 9.4-2.3 13.9 2 2.7 5 4.2 8.2 4.2 2 0 4-.6 5.8-1.9l34.7-24.7c16.5-11.7 21.3-32.9 11.2-49.2-10.1-16.4-31.1-21.6-49.1-12.4zM73.1 463.8c0 3.5-3 6.5-6.6 6.5h-40c-3.5 0-6.5-3-6.5-6.5v-105c0-3.6 2.9-6.6 6.5-6.6h40c3.6 0 6.6 3 6.6 6.6v105z"/></symbol><symbol viewBox="0 0 325.2 325.2" id="icon-skype" xmlns="http://www.w3.org/2000/svg"><path fill="#AEC5E0" d="M320 164.1c0-84.8-69.9-153.9-155.9-153.9-6.9 0-13.8.5-20.8 1.4C129.2 4 113.3 0 97.1 0 43.6 0 0 43.1 0 96c0 15 3.6 29.8 10.4 43.1-1.4 8.3-2.1 16.6-2.1 25C8.3 249 78.2 318 164.1 318c7.7 0 15.5-.6 23.2-1.7 12.8 5.8 26.8 8.9 40.8 8.9 53.5 0 97.1-43.1 97.1-96 0-13.1-2.6-25.6-7.7-37.5 1.7-9.1 2.5-18.3 2.5-27.6zm-91.9 129.1c-10.9 0-21.3-2.6-30.9-7.6-2.3-1.2-4.9-1.9-7.5-1.9-.9 0-1.9.1-2.8.2-7.5 1.4-15.2 2-22.7 2-68.3 0-123.8-54.7-123.8-121.9 0-8.2.8-16.5 2.5-24.5.8-3.9.1-8-1.9-11.4-5.9-9.7-9-20.8-9-32.1 0-35.3 29.2-64 65.1-64 12.3 0 24.3 3.4 34.7 9.9 3.3 2.1 7.3 2.9 11.1 2.2 7.1-1.2 14.2-1.8 21.2-1.8C232.4 42.3 288 97 288 164.2c0 8.8-.9 17.6-2.8 26.2-.8 3.6-.3 7.3 1.3 10.6 4.4 8.8 6.7 18.4 6.7 28.3 0 35.2-29.2 63.9-65.1 63.9z"/><path fill="#AEC5E0" d="M221.4 174.4c-3.9-7.2-9.7-12.9-17.1-17-3.5-2-7.6-3.7-12.2-5.3-3.9-1.3-10.4-3.2-19.7-5.5l-12.1-3.1c-12.5-2.7-17.2-5.1-18.5-6-1.7-1.1-2.9-2.5-3.9-4.4-1.1-2.3-1.7-5.4-1.7-9.1 0-8.5 3-12 5.6-14 4.9-3.8 13.2-5.8 24.2-5.8 10 0 17.5 2 22.3 6.1 2.7 2.3 6.3 6.4 6.7 16.1.3 8.8 7.9 15.7 16.6 15.4 8.8-.3 15.7-7.7 15.4-16.6-.6-16.4-6.8-30-18.1-39.4-10.7-9-25.2-13.6-42.9-13.6-18.4 0-33.2 4.3-44 12.6-8.2 6.4-17.9 18.4-17.9 39.2 0 8.6 1.7 16.4 4.9 23.1 3.5 7.2 8.6 13 15.4 17.4 6.5 4.1 15.6 7.4 27.5 9.9l12.6 3.3c8.1 2 13.8 3.6 17.2 4.8 2.6.9 4.9 1.9 6.9 3 2.2 1.2 3.6 2.6 4.6 4.4 1.1 2 1.7 4.8 1.7 8.3 0 9.7-3.6 13.9-6.6 16.4-5.4 4.4-13.9 6.6-25.2 6.6-11.1 0-19.5-2.3-25.1-6.8-3.1-2.5-7.3-7.2-7.9-18-.4-8.8-7.9-15.6-16.8-15.2-8.8.4-15.6 8-15.2 16.8.9 17.5 7.5 31.3 19.6 41.2 11.4 9.3 26.6 14 45.3 14 18.9 0 34.1-4.7 45.4-13.8 12-9.8 18.4-24 18.4-41.2.2-9-1.7-17-5.4-23.8z"/></symbol><symbol viewBox="0 0 512 512" id="icon-square" xmlns="http://www.w3.org/2000/svg"><path d="M507.3 4.7c-3.4-3.4-8-5.1-12.8-4.6L370.1 11.4c-6.2.6-11.5 4.7-13.6 10.5s-.7 12.4 3.7 16.8l34 34-138.7 138.1c-6.2 6.2-6.2 16.4 0 22.6l22.6 22.6c6.3 6.3 16.4 6.3 22.7 0l138.6-138.2 34 34c4.4 4.4 10.9 5.8 16.8 3.7 2.2-.8 4.2-2.1 5.9-3.7 2.6-2.6 4.3-6 4.6-9.9L512 17.5c.4-4.8-1.3-9.4-4.7-12.8z"/><path d="M448 192v256H64V64h256V0H32C14.3 0 0 14.3 0 32v448c0 17.7 14.3 32 32 32h448c17.7 0 32-14.3 32-32V192h-64z"/><path d="M62.4 291.5H219v156.6H62.4z"/></symbol><symbol viewBox="0 0 512 488.4" id="icon-star" xmlns="http://www.w3.org/2000/svg"><path d="M511.3 185.5c-1.8-5.6-6.8-9.6-12.6-10.2L336.2 158 269.6 8.8C267.2 3.5 261.9 0 256 0s-11.2 3.5-13.6 8.8L175.8 158 13.3 175.2c-5.8.6-10.8 4.6-12.6 10.2-1.8 5.6-.2 11.7 4.2 15.7l121.3 109.4-33.8 159.9c-1.2 5.8 1.1 11.7 5.8 15.1 4.8 3.5 11.1 3.8 16.2.9L256 404.9l141.6 81.5c2.3 1.3 4.9 2 7.4 2 3.1 0 6.2-1 8.8-2.8 4.8-3.5 7-9.4 5.8-15.1l-33.8-159.8 121.3-109.4c4.3-4.1 6-10.2 4.2-15.8z"/></symbol><symbol viewBox="0 0 512 448.1" id="icon-telegram" xmlns="http://www.w3.org/2000/svg"><path d="M8.8 217.6L134 280c4.8 2.4 10.6 2.2 15.2-.5l111.4-64.8-67.5 59.8c-3.4 3.1-5.4 7.4-5.4 12v145.6c0 15.4 19.6 21.8 28.8 9.6l54.1-72 133.8 76.2c9.4 5.4 21.4 0 23.6-10.8l83.5-416c2.5-12.5-9.9-22.7-21.5-18L10 188.3c-12.7 5.1-13.6 23.1-1.2 29.3zm465.7-176l-73.4 365.6L274.3 335c-6.9-3.9-15.8-2.2-20.7 4.3l-33.8 44.9v-90.5L402.2 132c14.4-12.8-2.2-35.5-18.6-25.8l-243 141.3-85.2-42.4L474.5 41.6z"/></symbol><symbol viewBox="0 0 192 213.3" id="icon-user" xmlns="http://www.w3.org/2000/svg"><path d="M96 106.7c-29.4 0-53.3-23.9-53.3-53.3C42.7 23.9 66.6 0 96 0s53.3 23.9 53.3 53.3-23.9 53.4-53.3 53.4zM96 32c-11.8 0-21.3 9.6-21.3 21.3 0 11.8 9.6 21.3 21.3 21.3s21.3-9.6 21.3-21.3c0-11.7-9.5-21.3-21.3-21.3zm80 181.3c-8.8 0-16-7.2-16-16v-10.7c0-14.7-12-26.7-26.7-26.7H58.7C44 160 32 172 32 186.7v10.7c0 8.8-7.2 16-16 16s-16-7.2-16-16v-10.7C0 154.3 26.3 128 58.7 128h74.7c32.4 0 58.7 26.3 58.7 58.7v10.7c-.1 8.8-7.3 15.9-16.1 15.9z"/></symbol><symbol viewBox="0 0 496 496" id="icon-viber" xmlns="http://www.w3.org/2000/svg"><path d="M266.7 107.1c65.5 2.2 124.5 62.6 123.7 126.7-.1 8.8 7 16.1 15.8 16.2h.2c8.7 0 15.9-7 16-15.8 1-82-71.2-156.4-154.6-159.1-8.7-.7-16.2 6.6-16.5 15.5-.4 8.8 6.6 16.2 15.4 16.5z"/><path d="M262.9 160.3c40.8 4.8 73.6 38.9 73.3 76-.1 8.8 7 16.1 15.9 16.1h.1c8.8 0 15.9-7.1 16-15.9.4-52.9-45.1-101.4-101.6-108-8.7-1.1-16.7 5.2-17.8 14-.9 8.8 5.4 16.8 14.1 17.8z"/><path d="M399.6 309.4l-4.6-3.5c-8.4-6.6-17.2-12.6-25.7-18.4l-5.7-3.9c-15.6-10.7-30.4-14.8-44-12.3-12.8 2.4-23.9 10.5-32.9 24-2.1 3.2-4.2 6.2-13.5 2-16.3-7.2-30.3-16.4-41.7-27.2l-28-39.9c-4.7-11-2.1-14.4 4.3-18.6 8.1-5.4 24.9-16.7 23.7-39.2-1.3-22.8-46.3-82.9-67.8-90.7-9.8-3.5-20-3.6-30.4-.2-23.4 7.7-40.3 21.6-48.7 40.1-8.1 17.8-7.8 38.3 1 59.4 44.8 108 124.8 186.9 237.9 234.6 5.8 2.5 11.8 3.8 15.7 4.6l2.7.6c1.5.4 3 .5 4.5.5 32.8 0 66.3-29.5 75.9-56.3 11-30.4-10.1-46.2-22.7-55.6zm-7.4 44.9c-6.1 17-28.1 34.1-44.4 35.1-.5-.1-1.1-.2-1.7-.4-3.1-.7-7-1.5-10.1-2.8-105-44.3-179.3-117.4-220.7-217.3-5.2-12.6-5.7-24.3-1.4-33.7 4.7-10.2 14.9-18.2 29.7-23.1 1.9-.6 3.5-.9 5.1-.9 1.4 0 2.8.3 4.1.8 11.2 5.2 44.9 50.3 46.9 62.4.2 2.6-.4 4.8-9.5 10.8-12.1 8.1-30.1 26.5-15.1 59.8.4.9.9 1.8 1.5 2.6l29.8 42.4c.6.8 1.2 1.6 2 2.3 14.3 13.9 31.8 25.4 52 34.4 21.5 9.6 40.8 4.7 53-13.4 4.1-6.1 8.3-9.6 12.4-10.4 6.2-1.2 14.2 3.3 19.9 7.2l5.7 3.9c8.1 5.5 16.2 11.1 23.9 17.2 1.7 1.4 3.5 2.7 5.2 4 13.6 10 14.2 12.1 11.7 19.1z"/><path d="M362.9 0H133.1C60.9 0 0 60.9 0 133.1V363c0 72.1 60.9 133 133.1 133H363c72.1 0 133.1-60.9 133.1-133.1V133.1C496 60.9 435.1 0 362.9 0zM464 362.9c0 54.8-46.3 101.1-101.1 101.1H133.1C78.3 464 32 417.7 32 362.9V133.1C32 78.3 78.3 32 133.1 32H363c54.7 0 101 46.3 101 101.1v229.8z"/></symbol><symbol viewBox="0 0 30 30" id="icon-vk" xmlns="http://www.w3.org/2000/svg"><path d="M28.4 0H1.6C.7 0 0 .7 0 1.6v26.8c0 .9.7 1.6 1.6 1.6h26.8c.9 0 1.6-.7 1.6-1.6V1.6c0-.9-.7-1.6-1.6-1.6zm-4.5 16.9c.8.8 1.7 1.5 2.4 2.4l.9 1.2c.3.6 0 1.4-.5 1.4L23 22c-.9.1-1.7-.3-2.3-.9-.5-.5-1-1-1.4-1.6l-.6-.6c-.5-.3-.9-.2-1.2.3-.3.5-.4 1.1-.4 1.7 0 .8-.3 1.1-1.1 1.1-1.8.1-3.5-.2-5.1-1.1-1.4-.8-2.5-1.9-3.5-3.2-1.9-2.5-3.3-5.3-4.6-8.1-.3-.6-.1-1 .6-1h3.5c.5 0 .8.3 1 .7.6 1.6 1.4 3 2.4 4.4.3.4.5.7.9 1 .4.3.7.2.9-.3.1-.3.2-.6.2-.9.1-1.1.1-2.2-.1-3.2-.1-.7-.5-1.1-1.2-1.2-.3-.1-.3-.2-.1-.4.4-.5.7-.7 1.2-.7h4.1c.6.1.8.4.9 1.1v4.5c0 .2.1 1 .6 1.2.4.1.6-.2.8-.4 1-1 1.7-2.3 2.3-3.5.3-.6.5-1.1.7-1.7.2-.4.4-.6.9-.6h4.2c.7.1.8.4.6 1-.3 1-.9 1.9-1.6 2.7-.7.9-1.3 1.8-2 2.7-.5.8-.4 1.2.3 1.9z"/></symbol><symbol viewBox="0 0 52 52" id="icon-whatsapp" xmlns="http://www.w3.org/2000/svg"><path d="M26 0C11.7 0 0 11.7 0 26c0 4.9 1.4 9.6 3.9 13.8C2.9 43.4 1 50.2 1 50.3c-.1.4 0 .7.3 1s.6.3 1 .2l10.3-3.2c4 2.4 8.7 3.7 13.4 3.7 14.3 0 26-11.7 26-26S40.3 0 26 0zm0 50c-4.5 0-8.9-1.3-12.7-3.7-.2-.1-.3-.2-.5-.2h-.3l-9 2.8c.7-2.4 1.8-6.7 2.5-9.1.1-.3 0-.6-.1-.8C3.3 35.2 2 30.7 2 26 2 12.8 12.8 2 26 2s24 10.8 24 24-10.8 24-24 24z"/><path d="M43 32.1c-1.8-1-3.4-2.1-4.6-2.8-.9-.6-1.5-1-2-1.2-1.3-.6-2.3-.2-2.7.2 0 0-.1.1-.1.2-1.3 2-3.1 4-3.6 4.1-.6-.1-3.4-1.7-6.1-4-2.8-2.4-4.6-4.6-4.9-6.1 1.8-1.9 2.5-3 2.5-4.4 0-1.4-3.2-7.1-3.8-7.7-.6-.6-1.9-.7-3.9-.3-.2 0-.4.1-.5.3-.2.2-5.9 6-3.2 13.1 3 7.7 10.6 16.7 20.3 18.1 1.1.2 2.1.2 3.1.2 5.7 0 9.1-2.9 10-8.6.1-.5-.1-.9-.5-1.1zm-12.4 7.4C20.4 38 13.9 27.8 11.9 22.6c-2-5.1 1.7-9.7 2.6-10.7.7-.1 1.5-.2 1.8-.1.7.9 3 5.4 3.1 6.2 0 .5-.2 1.3-2.2 3.3-.1.2-.2.4-.2.7 0 5.2 11 12.5 13 12.5 1.7 0 3.9-2.9 5.2-4.7.1 0 .2 0 .4.1.4.2 1 .6 1.8 1.1 1 .7 2.4 1.6 4.1 2.5-.9 3.6-2.9 7.2-10.9 6z"/></symbol><symbol viewBox="0 0 30 30" id="icon-youtube" xmlns="http://www.w3.org/2000/svg"><path d="M18.2 18.3c-.2-.5-.7-.6-1.1-.5-.3.1-.5.2-.6.4-.1.1-.1.2-.1.2v-2.6h-1.1v8h1.1v-.4l.1.1c.2.3.5.4.9.4.5 0 .8-.2.9-.6.1-.2.1-.4.1-.6v-3.4c0-.5-.1-.8-.2-1zm-.9 4.1v.2c0 .1-.1.2-.1.2-.1 0-.2.1-.3 0h-.4v-3.7s0-.1.1-.1c.1-.1.3-.2.4-.2.1 0 .3.1.3.2s.1.2.1.3c-.1 1-.1 2-.1 3.1zm-6.2-6.7H7.4v1.1h1.3v6.9h1.2v-6.9h1.2zm3.8-4.4c.3 0 .5-.2.5-.5V7.6c0-.3-.2-.5-.5-.5s-.5.2-.5.5v3.2c.1.3.3.5.5.5zm-1.8 10.9v.1c-.1.2-.3.3-.5.4-.2.1-.3 0-.4-.2v-4.7h-1.1v5c0 .2 0 .4.1.6.1.2.3.3.5.4h.5c.3-.1.6-.3.8-.6l.1-.1v.7h1.1v-5.9h-1.1v4.3zm8.2-.6v.8c0 .3-.2.5-.5.5s-.5-.2-.5-.5v-1.5h2.1v-1.5c0-.2 0-.4-.1-.6-.1-.5-.4-.9-.9-1.1-.1 0-.3-.1-.5-.1-.5 0-1 .1-1.3.5-.3.4-.4.8-.4 1.2v2.6c0 .2 0 .5.1.7.1.5.4.8.8 1 .3.1.7.2 1 .1.6-.1.9-.4 1.1-.9.1-.4.1-1.3.1-1.3h-1zm-1-2.5c0-.3.2-.5.5-.5s.5.2.5.5v.9h-1v-.9z"/><path d="M28.4 0H1.6C.7 0 0 .7 0 1.6v26.9c0 .8.7 1.5 1.6 1.5h26.9c.9 0 1.6-.7 1.6-1.6V1.6C30 .7 29.3 0 28.4 0zm-11 6.3h1.1V11c0 .2.2.3.4.2.2-.1.4-.2.5-.4V6.3h1.1v5.9h-1.1v-.6l-.3.3c-.2.2-.4.3-.7.4-.4.1-.8 0-.9-.5 0-.1-.1-.3-.1-.4V6.3zm-2.5-.2c.9 0 1.6.7 1.6 1.6v3.1c0 .4-.2.8-.5 1.1-.3.3-.7.5-1.1.5-.9 0-1.6-.7-1.6-1.6V7.7c.1-.9.8-1.6 1.6-1.6zm-4.2-1.9s.5 2.1.7 3.1c.2-1 .7-3.1.7-3.1h1.3s-1 3.2-1.4 4.6v3.5h-1.2V8.8c-.4-1.4-1.4-4.6-1.4-4.6h1.3zm13.2 18.9c0 1.5-1.2 2.7-2.6 2.7-4.2.1-8.4.1-12.6 0-1.5 0-2.6-1.2-2.6-2.7v-6.6c0-1.5 1.2-2.7 2.6-2.7 4.2-.1 8.4-.1 12.6 0 1.5 0 2.6 1.2 2.6 2.7v6.6z"/></symbol></svg>