<?xml version="1.0" standalone="no"?>
<!DOCTYPE svg PUBLIC "-//W3C//DTD SVG 20010904//EN"
 "http://www.w3.org/TR/2001/REC-SVG-20010904/DTD/svg10.dtd">
<svg version="1.0" xmlns="http://www.w3.org/2000/svg"
 width="1068.000000pt" height="1068.000000pt" viewBox="0 0 1068.000000 1068.000000"
 preserveAspectRatio="xMidYMid meet">
<metadata>
Created by potrace 1.11, written by Peter Selinger 2001-2013
</metadata>
<g transform="translate(0.000000,1068.000000) scale(0.100000,-0.100000)"
fill="#000000" stroke="none">
<path d="M25 8957 c12 -23 37 -67 55 -97 18 -30 44 -75 58 -100 14 -25 33 -58
43 -75 21 -34 67 -115 108 -190 15 -27 39 -69 54 -92 15 -24 27 -47 27 -53 0
-5 5 -10 10 -10 6 0 10 -9 10 -20 0 -11 3 -20 8 -20 4 0 16 -17 27 -37 11 -21
39 -71 62 -111 24 -40 43 -75 43 -78 0 -3 14 -26 32 -52 18 -26 31 -48 30 -50
-1 -1 4 -12 12 -25 8 -12 69 -119 136 -237 67 -118 129 -225 136 -237 8 -13
14 -26 13 -29 0 -4 3 -10 8 -13 4 -3 19 -26 32 -51 13 -25 31 -53 39 -62 8
-10 12 -18 8 -18 -4 0 2 -12 13 -26 12 -15 21 -33 21 -40 0 -8 4 -14 8 -14 5
0 17 -19 28 -41 10 -23 23 -47 29 -53 5 -7 19 -30 31 -51 41 -78 87 -160 93
-165 3 -3 19 -30 35 -60 16 -30 35 -62 42 -71 8 -8 14 -18 14 -22 0 -4 23 -44
50 -91 28 -47 50 -87 50 -90 0 -3 18 -34 40 -68 22 -35 40 -69 40 -75 0 -7 3
-13 8 -13 4 0 12 -10 18 -23 23 -49 59 -112 67 -115 4 -2 7 -8 7 -12 0 -5 14
-33 31 -62 42 -70 65 -110 109 -188 20 -36 60 -105 88 -153 29 -49 52 -90 52
-93 0 -2 18 -33 40 -69 22 -36 40 -70 40 -75 0 -6 5 -10 10 -10 6 0 10 -4 10
-9 0 -7 198 -362 230 -411 13 -21 60 -103 100 -175 18 -33 36 -64 40 -70 10
-12 46 -77 74 -130 12 -22 23 -42 26 -45 7 -7 29 -43 37 -60 4 -8 26 -48 50
-88 24 -41 43 -76 43 -79 0 -3 13 -24 28 -47 15 -22 34 -56 41 -73 7 -18 16
-33 20 -33 3 0 13 -15 20 -32 8 -18 36 -68 63 -111 26 -43 48 -81 48 -83 0 -3
41 -75 92 -162 50 -86 101 -175 113 -197 11 -22 33 -59 48 -82 15 -24 27 -45
27 -47 0 -2 20 -39 45 -80 25 -42 45 -79 45 -83 0 -4 6 -14 14 -22 8 -9 26
-38 41 -66 14 -27 36 -66 47 -85 11 -19 32 -56 47 -81 86 -152 123 -216 131
-229 33 -51 270 -474 270 -481 0 -5 3 -9 8 -9 4 0 22 -28 40 -63 18 -34 44
-80 58 -102 13 -22 27 -47 31 -55 4 -8 16 -31 28 -50 12 -19 33 -56 47 -81 45
-80 53 -94 58 -99 3 -3 10 -14 16 -25 6 -11 28 -51 49 -90 21 -38 49 -87 62
-107 13 -21 23 -42 23 -48 0 -5 5 -10 10 -10 6 0 10 -5 10 -11 0 -16 63 -119
73 -119 4 0 11 8 15 18 4 9 46 83 95 164 48 81 87 151 87 157 0 6 6 14 13 18
6 4 21 26 33 48 21 40 47 84 204 350 46 77 91 154 100 170 44 77 197 338 237
404 47 77 53 87 123 211 24 41 47 77 51 78 5 2 9 8 9 13 0 6 38 74 84 152 46
78 92 156 102 174 11 17 40 67 65 110 25 43 65 112 89 153 24 41 57 98 75 125
17 28 35 57 38 65 4 8 16 30 28 49 31 51 190 323 206 351 8 14 23 39 33 55 10
17 28 47 39 67 39 71 46 83 53 88 4 3 18 26 32 50 45 85 80 145 85 150 3 3 14
20 24 38 9 17 25 47 35 64 9 18 20 35 23 38 9 9 89 151 89 160 0 5 4 10 8 12
8 3 41 58 93 153 12 22 24 42 28 45 3 3 13 19 22 35 25 48 44 80 50 85 3 3 12
19 21 35 8 17 44 80 80 140 35 61 71 121 79 135 8 14 16 27 19 30 3 3 13 21
23 40 33 61 52 95 57 100 12 11 90 149 90 159 0 6 5 11 10 11 6 0 10 4 10 10
0 5 16 34 35 64 19 30 35 60 35 66 0 5 5 10 10 10 6 0 10 4 10 9 0 8 34 70 61
111 5 8 50 85 99 170 49 85 94 160 100 167 5 7 10 14 10 17 0 7 127 223 151
258 11 15 19 30 19 33 0 3 16 31 35 61 19 30 35 58 35 63 0 5 3 11 8 13 4 2
16 19 26 38 31 55 75 132 96 165 11 17 23 37 27 45 3 8 18 33 31 54 43 69 83
140 89 159 3 9 9 17 14 17 5 0 9 4 9 9 0 5 25 51 56 102 31 51 60 104 65 116
5 13 13 23 19 23 5 0 10 6 10 14 0 8 7 22 16 30 8 9 13 16 9 16 -3 0 2 12 13
28 11 15 37 59 59 97 22 39 79 136 126 216 47 81 94 161 104 177 90 154 158
268 162 272 3 3 17 28 31 55 14 28 28 52 32 53 5 2 8 12 8 21 0 14 -6 17 -27
15 -32 -5 -47 -5 -244 -2 -80 1 -151 -2 -157 -6 -7 -4 -12 -4 -12 1 0 4 -287
9 -638 10 -350 1 -1222 4 -1937 8 -1809 8 -3013 14 -4326 19 l-1127 5 23 -42z"/>
<path d="M8454 8808 c-33 -57 -63 -111 -69 -120 -74 -124 -82 -138 -130 -223
-15 -27 -36 -62 -46 -77 -11 -14 -19 -31 -19 -37 0 -6 -4 -11 -10 -11 -5 0
-10 -4 -10 -9 0 -9 -138 -249 -293 -511 -27 -47 -57 -98 -65 -115 -9 -16 -18
-32 -22 -35 -4 -3 -9 -12 -13 -20 -3 -8 -22 -42 -42 -75 -19 -33 -53 -91 -76
-130 -22 -38 -54 -92 -70 -120 -16 -27 -48 -81 -70 -120 -22 -38 -49 -83 -59
-100 -11 -16 -23 -37 -27 -45 -4 -8 -24 -43 -45 -78 -21 -34 -38 -67 -38 -72
0 -6 -7 -13 -15 -16 -8 -4 -13 -10 -10 -14 3 -4 -4 -18 -14 -31 -10 -13 -21
-34 -25 -46 -4 -13 -12 -23 -17 -23 -5 0 -9 -4 -9 -9 0 -8 -32 -66 -87 -156
-7 -11 -17 -29 -22 -40 -6 -11 -24 -42 -41 -70 -17 -27 -33 -58 -37 -67 -3
-10 -9 -18 -14 -18 -5 0 -9 -4 -9 -10 0 -5 -22 -47 -50 -94 -27 -47 -50 -89
-50 -95 0 -6 -3 -11 -8 -11 -4 0 -16 -17 -27 -37 -10 -21 -27 -49 -36 -63 -9
-14 -27 -45 -41 -70 -50 -89 -170 -295 -178 -305 -4 -5 -19 -30 -32 -55 -14
-25 -36 -63 -48 -85 -13 -22 -36 -62 -52 -90 -35 -60 -47 -81 -71 -117 -10
-16 -15 -28 -10 -28 4 0 3 -4 -3 -8 -6 -4 -19 -22 -28 -39 l-17 -33 28 -1 c16
-1 33 0 38 1 6 1 28 1 50 0 22 -1 47 -1 55 -1 8 1 29 1 45 0 17 -1 36 -1 43 0
6 0 38 1 70 0 31 0 68 1 82 2 14 0 32 0 40 0 8 -1 26 -1 40 0 14 0 32 0 40 0
8 -1 26 -1 40 0 14 0 31 0 38 0 16 -2 49 -2 65 0 6 0 37 1 67 0 30 0 63 -1 73
0 46 1 135 0 162 -1 17 -1 37 -2 45 -1 8 0 33 1 55 0 22 0 47 0 55 0 8 1 29 1
45 0 17 -1 36 -1 43 0 6 0 38 1 70 0 31 0 68 1 82 2 14 0 32 0 40 0 8 -1 26
-1 40 0 14 0 32 0 40 0 8 -1 26 -1 40 0 14 0 31 0 38 0 16 -2 49 -2 65 0 6 0
37 1 67 0 30 0 63 -1 73 0 46 1 135 0 162 -1 17 -1 37 -2 45 -1 8 0 33 1 55 0
22 0 47 0 55 0 8 1 29 1 45 0 17 -1 36 -1 43 0 6 0 38 1 70 0 31 0 68 1 82 2
14 0 32 0 40 0 8 -1 26 -1 40 0 14 0 32 0 40 0 8 -1 26 -1 40 0 14 0 31 0 38
0 16 -2 49 -2 65 0 6 0 37 1 67 0 30 0 63 -1 73 0 46 1 135 0 162 -1 17 -1 37
-2 45 -1 8 0 33 1 55 0 22 0 47 0 55 0 8 1 29 1 45 0 17 -1 36 -1 43 0 6 0 38
1 70 0 31 0 68 1 82 2 14 0 32 0 40 0 8 -1 26 -1 40 0 14 0 32 0 40 0 8 -1 26
-1 40 0 14 0 31 0 38 0 16 -2 49 -2 65 0 6 0 37 1 67 0 30 0 63 -1 73 0 46 1
135 0 162 -1 17 -1 37 -2 45 -1 8 0 33 1 55 0 22 0 47 0 55 0 8 1 29 1 45 0
17 -1 35 -1 40 0 33 2 122 3 130 1 40 -10 59 15 31 42 -7 8 -17 24 -20 36 -4
12 -11 22 -16 22 -4 0 -11 11 -14 25 -4 14 -11 25 -16 25 -6 0 -10 5 -10 11 0
9 -43 84 -117 204 -7 11 -18 32 -25 48 -7 15 -16 27 -20 27 -4 0 -8 5 -8 11 0
6 -13 30 -30 54 -16 24 -30 46 -30 50 0 3 -12 24 -27 48 -15 23 -34 53 -41 67
-7 14 -18 34 -25 45 -7 11 -45 76 -86 145 -41 69 -84 141 -97 161 -13 19 -24
40 -24 45 0 6 -9 19 -20 29 -11 10 -17 21 -15 25 3 4 -2 13 -10 20 -8 7 -15
19 -15 26 0 8 -4 14 -9 14 -5 0 -11 8 -14 18 -4 9 -17 35 -31 57 -14 22 -34
54 -43 72 -10 18 -54 92 -98 165 -44 73 -82 138 -85 143 -3 6 -21 36 -40 68
-19 32 -39 66 -45 75 -38 64 -178 300 -185 312 -68 108 -250 422 -250 430 0 5
-4 10 -10 10 -5 0 -10 4 -10 8 0 4 -52 95 -116 202 -64 107 -130 220 -147 250
-17 30 -39 66 -50 80 -10 14 -25 39 -33 55 -7 17 -18 37 -24 45 -32 48 -110
183 -110 191 0 5 -4 9 -9 9 -5 0 -11 8 -15 18 -6 18 -23 48 -66 117 -39 62
-48 78 -59 103 -6 12 -15 22 -20 22 -5 0 -35 -46 -67 -102z"/>
</g>
</svg>
