<?xml version="1.0" encoding="utf-8"?>
<!-- Generator: Adobe Illustrator 23.1.0, SVG Export Plug-In . SVG Version: 6.00 Build 0)  -->
<svg version="1.1" id="Layer_1" xmlns="http://www.w3.org/2000/svg" xmlns:xlink="http://www.w3.org/1999/xlink" x="0px" y="0px"
	 width="511px" height="352.4px" viewBox="0 0 511 352.4" enable-background="new 0 0 511 352.4" xml:space="preserve">
<path fill="#C03A2B" d="M396.5,352.4H511V0H0v352.4H396.5z"/>
<g>
	<path fill="#FFFFFF" d="M337.2,142.5l24.5,8.3l20.7-15.5l-0.3,25.9l21.1,14.9l-24.7,7.7l-7.7,24.7l-14.9-21.1l-25.9,0.3l15.5-20.7
		L337.2,142.5z"/>
	<path fill="#FFFFFF" d="M264.3,255.5c20.8,0,40.7-8.2,55.5-22.7c-25.7,45.2-78.6,67.5-128.8,54.2c-50.3-13.3-85.3-58.7-85.3-110.7
		c0-52,35-97.5,85.3-110.7c50.3-13.3,103.2,9,128.8,54.2c-25.5-25.1-64.7-29.9-95.6-11.8c-30.9,18.1-45.8,54.6-36.4,89.2
		C197.2,231.5,228.5,255.5,264.3,255.5z"/>
</g>
</svg>
