<?xml version="1.0" encoding="utf-8"?>
<!-- Generator: Adobe Illustrator 23.1.0, SVG Export Plug-In . SVG Version: 6.00 Build 0)  -->
<svg version="1.1" id="Layer_1" xmlns="http://www.w3.org/2000/svg" xmlns:xlink="http://www.w3.org/1999/xlink" x="0px" y="0px"
	 width="512px" height="469.3px" viewBox="0 0 512 469.3" enable-background="new 0 0 512 469.3" xml:space="preserve">
<path fill="#4CAF50" d="M306.6,317.2c-12.1,12.1-28.2,18.8-45.2,18.8c-17.1,0-33.2-6.7-45.2-18.8l-90.7-90.7
	c-12.1-12.1-18.7-28.2-18.7-45.2s6.7-33.2,18.7-45.2c12.1-12.1,28.2-18.8,45.2-18.8c17.1,0,33.2,6.7,45.2,18.8l45.4,45.4L386.7,56.1
	c-41-34.9-94-56.1-152-56.1C105.1,0,0,105.1,0,234.7c0,129.6,105.1,234.7,234.7,234.7c129.6,0,234.7-105.1,234.7-234.7
	c0-24.3-3.7-47.6-10.5-69.7L306.6,317.2z"/>
<path fill="#004592" d="M261.3,293.3c-5.5,0-10.9-2.1-15.1-6.2l-90.7-90.7c-8.3-8.3-8.3-21.8,0-30.2c8.3-8.3,21.8-8.3,30.2,0
	l75.6,75.6L475.6,27.6c8.3-8.3,21.8-8.3,30.2,0c8.3,8.3,8.3,21.8,0,30.2L276.4,287.1C272.3,291.2,266.8,293.3,261.3,293.3z"/>
</svg>
