<?xml version="1.0" encoding="utf-8"?>
<!-- Generator: Adobe Illustrator 23.1.0, SVG Export Plug-In . SVG Version: 6.00 Build 0)  -->
<svg version="1.1" id="Capa_1" xmlns="http://www.w3.org/2000/svg" xmlns:xlink="http://www.w3.org/1999/xlink" x="0px" y="0px"
	 width="468px" height="468px" viewBox="0 0 468 468" enable-background="new 0 0 468 468" xml:space="preserve">
<path fill="#FFFFFF" d="M66.9,232.5c-9.9,0-19-5.8-23.3-14.8C14.9,158.3-0.2,92,0,26C0,11.7,11.7,0,26,0h96c14.3,0,26,11.7,26,26
	c-0.2,43.8,9.8,87.8,29,127.1c6.3,12.9,1,28.5-11.9,34.8l-86.8,42c-3.5,1.7-7.4,2.6-11.3,2.6L66.9,232.5z M52.8,52
	c2.6,41.1,11.7,81.1,27.1,119.3l39.9-19.3C107.1,120,99.4,86.4,96.9,52H52.8z"/>
<path fill="#FFFFFF" d="M67,222.5c-6.1,0-11.7-3.5-14.4-9.1C24.4,154.9,9.8,90.9,10,26c0-8.8,7.2-16,16-16h96c8.8,0,16,7.2,16,16
	c-0.2,45.6,10.1,90.6,30,131.5c3.9,7.9,0.6,17.5-7.3,21.4c0,0,0,0-0.1,0L74,220.9C71.8,222,69.4,222.5,67,222.5z M42.3,42
	c1.8,49.2,12.8,97.7,32.4,142.9l57.9-28c-15.6-36.4-24.5-75.4-26.3-115C106.4,42,42.3,42,42.3,42z"/>
<path fill="#FFFFFF" d="M441,468c-65.6,0-131.6-15.1-190.7-43.6c-12.9-6.2-18.4-21.7-12.2-34.7l42-86.9c4.3-8.9,13.5-14.7,23.4-14.7
	c3.9,0,7.6,0.8,11.1,2.5l0.2,0.1l0.2,0.1c39,19,82.5,29.1,125.8,29.1l1.2,0c14.4,0,26,11.7,26,26v96c0,14.3-11.7,26-26,26L441,468z
	 M296.7,388.1c38.2,15.3,78.3,24.4,119.3,27.1v-44c-34.4-2.5-68-10.1-100.1-22.9L296.7,388.1z"/>
<path fill="#FFFFFF" d="M442,458c-64.9,0.2-128.9-14.4-187.4-42.6c-8-3.8-11.3-13.4-7.5-21.3c0,0,0-0.1,0.1-0.1l41.9-86.7c3.9-8,13.4-11.3,21.4-7.4
	c0,0,0,0,0.1,0c40.9,20,86,30.3,131.5,30.1c8.8,0,16,7.2,16,16v96C458,450.8,450.8,458,442,458z M283.1,393.3
	c45.2,19.6,93.7,30.6,142.9,32.4v-64c-39.6-1.7-78.6-10.6-115-26.3L283.1,393.3z"/>
<path fill="#FFFFFF" d="M250.2,424.4c-44.9-21.7-85.5-50.6-120.8-85.9c-35.3-35.3-64.2-75.9-85.9-120.8l-4.4-9L86,186.2l4.4,9
	c38.4,79.2,103.2,144,182.5,182.5l9,4.4l-22.6,46.8L250.2,424.4z"/>
<path fill="#FFFFFF" d="M254.6,415.4c-88.1-42.7-159.3-113.9-202-202l28.8-13.9c39.6,81.6,105.5,147.5,187.1,187.1L254.6,415.4z"/>
</svg>
