<?xml version="1.0" encoding="utf-8"?>
<!-- Generator: Adobe Illustrator 23.1.0, SVG Export Plug-In . SVG Version: 6.00 Build 0)  -->
<svg version="1.1" id="Layer_1" xmlns="http://www.w3.org/2000/svg" xmlns:xlink="http://www.w3.org/1999/xlink" x="0px" y="0px"
	 width="325.2px" height="325.2px" viewBox="0 0 325.2 325.2" enable-background="new 0 0 325.2 325.2" xml:space="preserve">
<path fill="#FFFFFF" d="M320,164.1c0-84.8-69.9-153.9-155.9-153.9c-6.9,0-13.8,0.5-20.8,1.4C129.2,4,113.3,0,97.1,0
	C43.6,0,0,43.1,0,96c0,15,3.6,29.8,10.4,43.1c-1.4,8.3-2.1,16.6-2.1,25C8.3,249,78.2,318,164.1,318c7.7,0,15.5-0.6,23.2-1.7
	c12.8,5.8,26.8,8.9,40.8,8.9c53.5,0,97.1-43.1,97.1-96c0-13.1-2.6-25.6-7.7-37.5C319.2,182.6,320,173.4,320,164.1z M228.1,293.2
	c-10.9,0-21.3-2.6-30.9-7.6c-2.3-1.2-4.9-1.9-7.5-1.9c-0.9,0-1.9,0.1-2.8,0.2c-7.5,1.4-15.2,2-22.7,2
	c-68.3,0-123.8-54.7-123.8-121.9c0-8.2,0.8-16.5,2.5-24.5c0.8-3.9,0.1-8-1.9-11.4C35.1,118.4,32,107.3,32,96c0-35.3,29.2-64,65.1-64
	c12.3,0,24.3,3.4,34.7,9.9c3.3,2.1,7.3,2.9,11.1,2.2c7.1-1.2,14.2-1.8,21.2-1.8c68.3,0,123.9,54.7,123.9,121.9
	c0,8.8-0.9,17.6-2.8,26.2c-0.8,3.6-0.3,7.3,1.3,10.6c4.4,8.8,6.7,18.4,6.7,28.3C293.2,264.5,264,293.2,228.1,293.2z"/>
<g>
	<g>
		<path fill="#FFFFFF" d="M221.4,174.4c-3.9-7.2-9.7-12.9-17.1-17c-3.5-2-7.6-3.7-12.2-5.3c-3.9-1.3-10.4-3.2-19.7-5.5l-12.1-3.1
			c-12.5-2.7-17.2-5.1-18.5-6c-1.7-1.1-2.9-2.5-3.9-4.4c-1.1-2.3-1.7-5.4-1.7-9.1c0-8.5,3-12,5.6-14c4.9-3.8,13.2-5.8,24.2-5.8
			c10,0,17.5,2,22.3,6.1c2.7,2.3,6.3,6.4,6.7,16.1c0.3,8.8,7.9,15.7,16.6,15.4c8.8-0.3,15.7-7.7,15.4-16.6
			c-0.6-16.4-6.8-30-18.1-39.4c-10.7-9-25.2-13.6-42.9-13.6c-18.4,0-33.2,4.3-44,12.6c-8.2,6.4-17.9,18.4-17.9,39.2
			c0,8.6,1.7,16.4,4.9,23.1c3.5,7.2,8.6,13,15.4,17.4c6.5,4.1,15.6,7.4,27.5,9.9l12.6,3.3c8.1,2,13.8,3.6,17.2,4.8
			c2.6,0.9,4.9,1.9,6.9,3c2.2,1.2,3.6,2.6,4.6,4.4c1.1,2,1.7,4.8,1.7,8.3c0,9.7-3.6,13.9-6.6,16.4c-5.4,4.4-13.9,6.6-25.2,6.6
			c-11.1,0-19.5-2.3-25.1-6.8c-3.1-2.5-7.3-7.2-7.9-18c-0.4-8.8-7.9-15.6-16.8-15.2c-8.8,0.4-15.6,8-15.2,16.8
			c0.9,17.5,7.5,31.3,19.6,41.2c11.4,9.3,26.6,14,45.3,14c18.9,0,34.1-4.7,45.4-13.8c12-9.8,18.4-24,18.4-41.2
			C227,189.2,225.1,181.2,221.4,174.4z"/>
	</g>
</g>
</svg>
