<?xml version="1.0" encoding="utf-8"?>
<!-- Generator: Adobe Illustrator 23.1.0, SVG Export Plug-In . SVG Version: 6.00 Build 0)  -->
<svg version="1.1" id="Layer_1" xmlns="http://www.w3.org/2000/svg" xmlns:xlink="http://www.w3.org/1999/xlink" x="0px" y="0px"
	 width="455.5px" height="480px" viewBox="0 0 455.5 480" enable-background="new 0 0 455.5 480" xml:space="preserve">
<g id="smartphone-online-money">
	<path fill="#FFFFFF" d="M335.5,240V24c0-13.2-10.8-24-24-24h-192c-13.2,0-24,10.8-24,24v96.9c-9.6,2-18.1,7.3-24,15.1
		c-0.3,0.4-0.5,0.8-0.7,1.2L4.3,268.5c-3.3,6.5-4.7,13.7-4.2,20.9l7.4,103.2c0.1,0.4,0.1,0.8,0.2,1.2L23.3,464H7.5v16h152v-16h-15.6
		l6.6-19.7l14.7-14.6c0.6-0.6,1.1-1.3,1.4-2.1l8-16c0.6-1.1,0.9-2.3,0.9-3.6v-40h40.4c4.5,66.1,61.6,116.1,127.7,111.6
		c66.1-4.5,116.1-61.6,111.6-127.7C450.9,288.9,398.6,240,335.5,240z M255.5,16c0,2.2-0.9,4.2-2.5,5.7c-1.4,1.5-3.4,2.4-5.5,2.3h-64
		c-4.4,0-8-3.6-8-8H255.5z M152.8,323.6c-0.9,1.3-1.4,2.8-1.4,4.4v24c0,1.3,0.3,2.5,0.9,3.6l7.1,14.3v36.2l-6.6,13.2l-15.1,15
		c-0.9,0.9-1.5,2-1.9,3.1l-8,24c-0.2,0.8-0.4,1.7-0.4,2.6h-88c0-0.6-0.1-1.2-0.2-1.8l-15.9-71.4l-7.3-102.6
		c-0.3-4.3,0.6-8.7,2.5-12.6L84.7,145c2.8-3.5,6.6-6.1,10.8-7.5v133.7c-1.9,0.5-3.9,0.8-5.8,0.8H79.5v16h10.2
		c10.8,0,21.1-4.4,28.6-12.1l61.6-54.9c6.3-5.7,16-5.4,21.9,0.6l2.1,2.1c5.4,5.4,6.3,13.8,2,20.2L152.8,323.6z M168.4,352l-1-1.9
		v-19.7l51.8-77.6c8.4-12.7,6.7-29.6-4-40.4l-2.1-2.1c-12-11.9-31.3-12.5-43.9-1.2l-57.8,51.4V24c0-4.4,3.6-8,8-8h40
		c0,13.2,10.8,24,24,24h64c13.3,0,24-10.7,24-24h40c4.4,0,8,3.6,8,8v217.2c-56.5,7.7-99.7,54-103.6,110.8H168.4z M335.5,464
		c-57.4,0-104-46.6-104-104s46.6-104,104-104s104,46.6,104,104C439.4,417.4,392.9,463.9,335.5,464z"/>
	<path fill="#FFFFFF" d="M351.5,352h-8v-32h8c8.8,0,16,7.2,16,16h16c0-17.7-14.3-32-32-32h-8v-16h-16v16h-8c-17.7,0-32,14.3-32,32
		s14.3,32,32,32h8v32h-8c-8.8,0-16-7.2-16-16h-16c0,17.7,14.3,32,32,32h8v16h16v-16h8c17.7,0,32-14.3,32-32S369.1,352,351.5,352z
		 M327.5,352h-8c-8.8,0-16-7.2-16-16s7.2-16,16-16h8V352z M351.5,400h-8v-32h8c8.8,0,16,7.2,16,16S360.3,400,351.5,400z"/>
	<path fill="#FFFFFF" d="M263.5,99.3l5.7-5.6l-11.4-11.4l-4.5,4.6c-22.7-20.8-58-19.2-78.8,3.6s-19.2,58,3.6,78.8s58,19.2,78.8-3.6
		C273.5,147.4,276.2,120.4,263.5,99.3z M215.5,168c-22.1,0.1-40.1-17.7-40.2-39.8c-0.1-22.1,17.7-40.1,39.8-40.2
		c10-0.1,19.6,3.6,27,10.2l-26.5,26.5l-10.3-10.4l-11.4,11.4l16,16c3.2,3.1,8.2,3.1,11.4,0l30.5-30.6c9.4,19.9,1,43.6-18.9,53
		C227.3,166.7,221.4,168,215.5,168z"/>
</g>
</svg>
