<?xml version="1.0" encoding="utf-8"?>
<!-- Generator: Adobe Illustrator 23.1.0, SVG Export Plug-In . SVG Version: 6.00 Build 0)  -->
<svg version="1.1" id="Layer_1" xmlns="http://www.w3.org/2000/svg" xmlns:xlink="http://www.w3.org/1999/xlink" x="0px" y="0px"
	 width="400px" height="400px" viewBox="0 0 400 400" enable-background="new 0 0 400 400" xml:space="preserve">
<path fill="#FFFFFF" d="M200,400C89.7,400,0,310.3,0,200S89.7,0,200,0c45,0,89.2,15.3,124.2,43.2c5,4,8.2,9.7,8.9,16.1
	c0.7,6.4-1.1,12.6-5.1,17.7c-4.6,5.8-11.4,9.1-18.8,9.1c-5.4,0-10.7-1.9-14.9-5.2C267.4,59.3,234.7,48,200,48
	c-83.8,0-152,68.2-152,152c0,83.8,68.2,152,152,152c83.8,0,152-68.2,152-152c0-23.2-5.1-45.5-15-66.1c-2.8-5.8-3.2-12.3-1.1-18.3
	s6.4-10.9,12.2-13.7c3.3-1.6,6.8-2.4,10.4-2.4c9.2,0,17.6,5.3,21.6,13.6c13.2,27.2,19.8,56.4,19.8,87C400,310.3,310.3,400,200,400z"
	/>
<path fill="#FFFFFF" d="M351.6,109c-8,3.8-11.3,13.4-7.4,21.4c10.5,21.7,15.8,45.1,15.8,69.6c0,88.2-71.8,160-160,160
	S40,288.2,40,200S111.8,40,200,40c36.6,0,70.9,11.9,99.3,34.5c6.9,5.5,17,4.4,22.5-2.6c5.5-6.9,4.4-17-2.6-22.5
	C285.6,22.7,243.2,8,200,8C94.1,8,8,94.1,8,200s86.1,192,192,192s192-86.1,192-192c0-29.3-6.4-57.4-19-83.5
	C369.1,108.5,359.5,105.2,351.6,109z"/>
<path fill="#FFFFFF" d="M200,224c-13.2,0-24-10.8-24-24V88c0-13.2,10.8-24,24-24c13.2,0,24,10.8,24,24v88h56c13.2,0,24,10.8,24,24
	c0,13.2-10.8,24-24,24H200z"/>
<path fill="#FFFFFF" d="M200,72c-8.8,0-16,7.2-16,16v112c0,8.8,7.2,16,16,16h80c8.8,0,16-7.2,16-16s-7.2-16-16-16h-64V88
	C216,79.2,208.8,72,200,72z"/>
</svg>
