<?xml version="1.0" encoding="utf-8"?>
<!-- Generator: Adobe Illustrator 23.1.0, SVG Export Plug-In . SVG Version: 6.00 Build 0)  -->
<svg version="1.1" id="Capa_1" xmlns="http://www.w3.org/2000/svg" xmlns:xlink="http://www.w3.org/1999/xlink" x="0px" y="0px"
	 width="89.1px" height="118.1px" viewBox="0 0 89.1 118.1" enable-background="new 0 0 89.1 118.1" xml:space="preserve">

	<path fill="#fff" d="M44.5,0C19.9,0,0,19.9,0,44.5c0,12.8,6.4,24.4,12.7,35.1c7.7,13.3,16.9,25.7,27.6,36.7c2.3,2.4,6.1,2.4,8.5,0
		c9.4-9.3,17.7-19.8,24.7-31C81,73.2,89.1,59.2,89.1,44.5C89,20,69.1,0,44.5,0z M44.5,70.3c-14.9,0-27-12.1-27-27s12.1-27,27-27
		s27,12,27,27S59.4,70.3,44.5,70.3z"/>

</svg>
