<?xml version="1.0" encoding="utf-8"?>
<!-- Generator: Adobe Illustrator 23.1.0, SVG Export Plug-In . SVG Version: 6.00 Build 0)  -->
<svg version="1.1" id="Layer_1" xmlns="http://www.w3.org/2000/svg" xmlns:xlink="http://www.w3.org/1999/xlink" x="0px" y="0px"
	 width="38px" height="30.4px" viewBox="0 0 38 30.4" enable-background="new 0 0 38 30.4" xml:space="preserve">
<path fill="#FF4E2F" d="M11.4,0l1.9,0c1.1,0,1.9,0.9,1.9,1.9c0,1-0.8,1.9-1.9,1.9h-1.9c-4.2,0-7.6,3.4-7.6,7.6v3.9
	c0.3-0.1,0.6-0.1,1-0.1h5.7c2.6,0,4.7,2.1,4.7,4.7v5.7c0,2.6-2.1,4.8-4.7,4.8H4.8c-2.6,0-4.8-2.1-4.8-4.8l0-14.2C0,5.1,5.1,0,11.4,0
	z"/>
<path fill="#FF4E2F" d="M34.2,0l1.9,0C37.2,0,38,0.9,38,1.9c0,1-0.8,1.9-1.9,1.9h-1.9c-4.2,0-7.6,3.4-7.6,7.6v3.9
	c0.3-0.1,0.6-0.1,1-0.1h5.7c2.6,0,4.7,2.1,4.7,4.7v5.7c0,2.6-2.1,4.8-4.7,4.8h-5.7c-2.6,0-4.8-2.1-4.8-4.8V11.4
	C22.8,5.1,27.9,0,34.2,0z"/>
</svg>
