<?xml version="1.0" encoding="utf-8"?>
<!-- Generator: Adobe Illustrator 23.0.3, SVG Export Plug-In . SVG Version: 6.00 Build 0)  -->
<svg version="1.1" id="Capa_1" xmlns="http://www.w3.org/2000/svg" xmlns:xlink="http://www.w3.org/1999/xlink" x="0px" y="0px"
	 viewBox="0 0 118.1 118.1" width="69" height="90" style="enable-background:new 0 0 118.1 118.1;" xml:space="preserve">
<style type="text/css">
	.st0{fill:#FFFFFF;}
	.st1{fill:#FF5436;}
	.st2{fill:url(#SVGID_1_);}
	.st3{fill:url(#SVGID_2_);}
	.st4{fill:url(#SVGID_3_);}
	.st5{fill:url(#SVGID_4_);}
	.st6{fill:url(#SVGID_5_);}
	.st7{fill:url(#SVGID_6_);}
	.st8{fill:url(#SVGID_7_);}
	.st9{fill:url(#SVGID_8_);}
	.st10{fill:url(#SVGID_9_);}
</style>
<g>
	<circle class="st0" cx="59.2" cy="43.4" r="29.5"/>
	<path class="st1" d="M59,0C34.4,0,14.5,19.9,14.5,44.5c0,12.8,6.4,24.4,12.7,35.1c7.7,13.3,16.9,25.7,27.6,36.7
		c2.3,2.4,6.1,2.4,8.5,0C72.7,107,81,96.5,88,85.3c7.5-12.1,15.6-26.1,15.6-40.8C103.5,20,83.6,0,59,0z M59,70.3
		c-14.9,0-27-12.1-27-27s12.1-27,27-27s27,12,27,27S73.9,70.3,59,70.3z"/>
</g>
<polygon class="st1" points="36.8,30.2 55.9,63.2 75,30.4 "/>
<g>
	<linearGradient id="SVGID_1_" gradientUnits="userSpaceOnUse" x1="68.0934" y1="48.8873" x2="82.3135" y2="40.3552">
		<stop  offset="0" style="stop-color:#FFFFFF;stop-opacity:0"/>
		<stop  offset="0.133" style="stop-color:#FFE2DD;stop-opacity:0.1926"/>
		<stop  offset="0.4242" style="stop-color:#FF9A88;stop-opacity:0.6144"/>
		<stop  offset="0.6904" style="stop-color:#FF5436"/>
	</linearGradient>
	<polygon class="st2" points="81.2,39.6 80.4,38.2 75.5,46.8 77,46.8 	"/>
	<linearGradient id="SVGID_2_" gradientUnits="userSpaceOnUse" x1="67.2049" y1="47.4066" x2="81.4251" y2="38.8745">
		<stop  offset="0" style="stop-color:#FFFFFF;stop-opacity:0"/>
		<stop  offset="0.133" style="stop-color:#FFE2DD;stop-opacity:0.1926"/>
		<stop  offset="0.4242" style="stop-color:#FF9A88;stop-opacity:0.6144"/>
		<stop  offset="0.6904" style="stop-color:#FF5436"/>
	</linearGradient>
	<polygon class="st3" points="80.1,37.6 79.3,36.3 73.2,46.8 74.7,46.8 	"/>
	<linearGradient id="SVGID_3_" gradientUnits="userSpaceOnUse" x1="68.9835" y1="50.3709" x2="83.2037" y2="41.8388">
		<stop  offset="0" style="stop-color:#FFFFFF;stop-opacity:0"/>
		<stop  offset="0.133" style="stop-color:#FFE2DD;stop-opacity:0.1926"/>
		<stop  offset="0.4242" style="stop-color:#FF9A88;stop-opacity:0.6144"/>
		<stop  offset="0.6904" style="stop-color:#FF5436"/>
	</linearGradient>
	<polygon class="st4" points="82.4,41.5 81.6,40.2 77.8,46.8 79.3,46.8 	"/>
	<linearGradient id="SVGID_4_" gradientUnits="userSpaceOnUse" x1="65.4186" y1="44.4294" x2="79.6388" y2="35.8973">
		<stop  offset="0" style="stop-color:#FFFFFF;stop-opacity:0"/>
		<stop  offset="0.133" style="stop-color:#FFE2DD;stop-opacity:0.1926"/>
		<stop  offset="0.4242" style="stop-color:#FF9A88;stop-opacity:0.6144"/>
		<stop  offset="0.6904" style="stop-color:#FF5436"/>
	</linearGradient>
	<polygon class="st5" points="76.9,32.3 68.6,46.8 70.1,46.8 77.7,33.7 	"/>
	<linearGradient id="SVGID_5_" gradientUnits="userSpaceOnUse" x1="66.312" y1="45.9182" x2="80.5321" y2="37.3861">
		<stop  offset="0" style="stop-color:#FFFFFF;stop-opacity:0"/>
		<stop  offset="0.133" style="stop-color:#FFE2DD;stop-opacity:0.1926"/>
		<stop  offset="0.4242" style="stop-color:#FF9A88;stop-opacity:0.6144"/>
		<stop  offset="0.6904" style="stop-color:#FF5436"/>
	</linearGradient>
	<polygon class="st6" points="78.1,34.3 70.9,46.8 72.4,46.8 78.9,35.6 	"/>
	<linearGradient id="SVGID_6_" gradientUnits="userSpaceOnUse" x1="71.5693" y1="54.6805" x2="85.7895" y2="46.1484">
		<stop  offset="0" style="stop-color:#FFFFFF;stop-opacity:0"/>
		<stop  offset="0.133" style="stop-color:#FFE2DD;stop-opacity:0.1926"/>
		<stop  offset="0.4242" style="stop-color:#FF9A88;stop-opacity:0.6144"/>
		<stop  offset="0.6904" style="stop-color:#FF5436"/>
	</linearGradient>
	<polygon class="st7" points="85.1,46.1 84.7,46.8 85.5,46.8 	"/>
	<linearGradient id="SVGID_7_" gradientUnits="userSpaceOnUse" x1="64.5351" y1="42.9568" x2="78.7552" y2="34.4247">
		<stop  offset="0" style="stop-color:#FFFFFF;stop-opacity:0"/>
		<stop  offset="0.133" style="stop-color:#FFE2DD;stop-opacity:0.1926"/>
		<stop  offset="0.4242" style="stop-color:#FF9A88;stop-opacity:0.6144"/>
		<stop  offset="0.6904" style="stop-color:#FF5436"/>
	</linearGradient>
	<polygon class="st8" points="76.6,31.7 75.8,30.4 66.2,46.8 67.9,46.8 	"/>
	<linearGradient id="SVGID_8_" gradientUnits="userSpaceOnUse" x1="70.7729" y1="53.3531" x2="84.993" y2="44.821">
		<stop  offset="0" style="stop-color:#FFFFFF;stop-opacity:0"/>
		<stop  offset="0.133" style="stop-color:#FFE2DD;stop-opacity:0.1926"/>
		<stop  offset="0.4242" style="stop-color:#FF9A88;stop-opacity:0.6144"/>
		<stop  offset="0.6904" style="stop-color:#FF5436"/>
	</linearGradient>
	<polygon class="st9" points="84.7,45.5 83.9,44.1 82.4,46.8 83.9,46.8 	"/>
	<linearGradient id="SVGID_9_" gradientUnits="userSpaceOnUse" x1="69.8752" y1="51.857" x2="84.0954" y2="43.3249">
		<stop  offset="0" style="stop-color:#FFFFFF;stop-opacity:0"/>
		<stop  offset="0.133" style="stop-color:#FFE2DD;stop-opacity:0.1926"/>
		<stop  offset="0.4242" style="stop-color:#FF9A88;stop-opacity:0.6144"/>
		<stop  offset="0.6904" style="stop-color:#FF5436"/>
	</linearGradient>
	<polygon class="st10" points="83.6,43.5 82.8,42.1 80,46.8 81.6,46.8 	"/>
</g>
</svg>
