<?xml version="1.0" encoding="utf-8"?>
<!-- Generator: Adobe Illustrator 22.1.0, SVG Export Plug-In . SVG Version: 6.00 Build 0)  -->
<svg version="1.1" id="Layer_1" xmlns="http://www.w3.org/2000/svg" xmlns:xlink="http://www.w3.org/1999/xlink" x="0px" y="0px"
	 viewBox="0 0 390.8 188.9" style="enable-background:new 0 0 390.8 188.9;" xml:space="preserve">
<style type="text/css">
	.st0{fill:#FF5436;}
	.st1{filter:url(#Adobe_OpacityMaskFilter);}
	.st2{fill:url(#SVGID_2_);}
	.st3{mask:url(#SVGID_1_);}
	.st4{fill:#FFFFFF;stroke:#FFFFFF;stroke-miterlimit:10;}
</style>
<polygon class="st0" points="0,0 106.1,183 212.6,0 "/>
<defs>
	<filter id="Adobe_OpacityMaskFilter" filterUnits="userSpaceOnUse" x="162.8" y="2" width="107.1" height="91">
		<feColorMatrix  type="matrix" values="1 0 0 0 0  0 1 0 0 0  0 0 1 0 0  0 0 0 1 0"/>
	</filter>
</defs>
<mask maskUnits="userSpaceOnUse" x="162.8" y="2" width="107.1" height="91" id="SVGID_1_">
	<g class="st1">
		<linearGradient id="SVGID_2_" gradientUnits="userSpaceOnUse" x1="169.999" y1="91.2751" x2="249.6363" y2="43.4242">
			<stop  offset="8.584201e-02" style="stop-color:#000000"/>
			<stop  offset="8.992551e-02" style="stop-color:#020202"/>
			<stop  offset="0.2623" style="stop-color:#5B5B5B"/>
			<stop  offset="0.4139" style="stop-color:#A1A1A1"/>
			<stop  offset="0.5391" style="stop-color:#D4D4D4"/>
			<stop  offset="0.6334" style="stop-color:#F3F3F3"/>
			<stop  offset="0.6858" style="stop-color:#FFFFFF"/>
		</linearGradient>
		<path class="st2" d="M246.2,53l-23.4,40h-8.6l27.6-47.5L246.2,53z M235.3,34.6L201.5,93h8.5l29.6-51L235.3,34.6z M248.2,56.4
			L226.8,93h8.6l17.1-29.3L248.2,56.4z M222.3,12.8L175.9,93h8.7l42.2-72.8L222.3,12.8z M228.8,23.7L188.7,93h8.7l35.9-61.8
			L228.8,23.7z M267.6,89l-2.4,4h4.7L267.6,89z M215.9,2l-53.1,91h9.1l48.3-83.7L215.9,2z M261.1,78.2L252.4,93h8.7l4.4-7.4
			L261.1,78.2z M254.6,67.2L239.5,93h8.9l10.7-18.3L254.6,67.2z"/>
	</g>
</mask>
<g class="st3">
	<path class="st0" d="M246.2,53l-23.4,40h-8.6l27.6-47.5L246.2,53z M235.3,34.6L201.5,93h8.5l29.6-51L235.3,34.6z M248.2,56.4
		L226.8,93h8.6l17.1-29.3L248.2,56.4z M222.3,12.8L175.9,93h8.7l42.2-72.8L222.3,12.8z M228.8,23.7L188.7,93h8.7l35.9-61.8
		L228.8,23.7z M267.6,89l-2.4,4h4.7L267.6,89z M215.9,2l-53.1,91h9.1l48.3-83.7L215.9,2z M261.1,78.2L252.4,93h8.7l4.4-7.4
		L261.1,78.2z M254.6,67.2L239.5,93h8.9l10.7-18.3L254.6,67.2z"/>
</g>
<g>
	<path class="st4" d="M161.3,188.1v-15.6c0.8-1.4,2.3-2,4.4-2h3.4l1.4,1v1.4h-4.8c-0.8,0-1.3,0.2-1.7,0.6v14.7H161.3z"/>
	<path class="st4" d="M180.3,183v-7.5c0-3.4,1.7-5.1,5.1-5.1h4.4c3.4,0,5.1,1.7,5.1,5.1v4.9H183v2.9c0,1.6,0.8,2.4,2.4,2.4h8.8v1.4
		l-1.4,1h-7.5C182,188.1,180.3,186.4,180.3,183z M183,178h9.2v-2.9c0-1.6-0.8-2.4-2.4-2.4h-4.4c-1.6,0-2.4,0.8-2.4,2.4V178z"/>
	<path class="st4" d="M210.8,188.1c-3.4,0-5.1-1.7-5.1-5.1c0-3.4,1.7-5.1,5.1-5.1h6.2v-2.7c0-1.6-0.8-2.4-2.4-2.4h-7.3v-1.4l1.4-1
		h5.9c3.4,0,5.1,1.7,5.1,5.1v12.6H210.8z M208.4,183.3c0,1.6,0.8,2.4,2.4,2.4h6.3v-5.5h-6.3c-1.6,0-2.4,0.8-2.4,2.4V183.3z"/>
	<path class="st4" d="M231.5,183.3v-20.3h2.7v20.6c0,1.5,0.8,2.4,2.4,2.4v2.4C233.2,188.4,231.5,186.7,231.5,183.3z"/>
	<path class="st4" d="M261.4,183v-7.5c0-3.4,1.7-5.1,5.1-5.1h4.4c3.4,0,5.1,1.7,5.1,5.1v4.9h-11.9v2.9c0,1.6,0.8,2.4,2.4,2.4h8.8
		v1.4l-1.4,1h-7.5C263.1,188.1,261.4,186.4,261.4,183z M264.1,178h9.2v-2.9c0-1.6-0.8-2.4-2.4-2.4h-4.4c-1.6,0-2.4,0.8-2.4,2.4V178z
		"/>
	<path class="st4" d="M287.1,187.1v-1.4h7.8c1.6,0,2.4-0.8,2.4-2.4c0-1.6-0.7-2.5-2-2.7l-4.1-0.7c-2.7-0.5-4.1-2-4.1-4.5
		c0-3.4,1.7-5,5.1-5h5.6l1.4,1v1.4h-7c-1.6,0-2.4,0.8-2.4,2.4c0,1.4,0.7,2.2,2,2.4l4.1,0.7c2.7,0.5,4.1,2.1,4.1,4.8
		c0,3.4-1.7,5-5.1,5h-6.5L287.1,187.1z"/>
	<path class="st4" d="M311.1,183v-18.4h2.7v5.8h6.5v2.4h-6.5v10.5c0,1.6,0.8,2.4,2.4,2.4h4.4v1.4l-1.4,1h-3.1
		C312.8,188.1,311.1,186.4,311.1,183z"/>
	<path class="st4" d="M335.3,188.1c-3.4,0-5.1-1.7-5.1-5.1c0-3.4,1.7-5.1,5.1-5.1h6.2v-2.7c0-1.6-0.8-2.4-2.4-2.4h-7.3v-1.4l1.4-1
		h5.9c3.4,0,5.1,1.7,5.1,5.1v12.6H335.3z M332.9,183.3c0,1.6,0.8,2.4,2.4,2.4h6.3v-5.5h-6.3c-1.6,0-2.4,0.8-2.4,2.4V183.3z"/>
	<path class="st4" d="M356,183v-18.4h2.7v5.8h6.5v2.4h-6.5v10.5c0,1.6,0.8,2.4,2.4,2.4h4.4v1.4l-1.4,1h-3.1
		C357.7,188.1,356,186.4,356,183z"/>
	<path class="st4" d="M375.7,183v-7.5c0-3.4,1.7-5.1,5.1-5.1h4.4c3.4,0,5.1,1.7,5.1,5.1v4.9h-11.9v2.9c0,1.6,0.8,2.4,2.4,2.4h8.8
		v1.4l-1.4,1h-7.5C377.4,188.1,375.7,186.4,375.7,183z M378.4,178h9.2v-2.9c0-1.6-0.8-2.4-2.4-2.4h-4.4c-1.6,0-2.4,0.8-2.4,2.4V178z
		"/>
</g>
<g>
	<polygon class="st4" points="350.8,119 350.8,115.1 318.5,115.1 313.9,115.1 313.9,129.7 313.9,146.4 313.9,149.6 318.5,149.6 
		350.8,149.6 350.8,145.7 318.5,145.7 318.5,133.6 349.1,133.6 349.1,129.7 318.5,129.7 318.5,119 	"/>
	<polygon class="st4" points="361.8,115.1 357.3,115.1 357.3,149.6 389.9,149.6 389.9,145.7 361.8,145.7 	"/>
	<polygon class="st4" points="271.8,145.7 307.1,119 307.1,115.1 265.4,115.1 265.5,119 299.4,119 264.1,145.7 264.1,149.6 
		307.4,149.6 307.4,145.7 	"/>
	<polygon class="st4" points="233.2,119 233.2,115.1 225.9,115.1 226,119 	"/>
	<polygon class="st4" points="245.6,119 245.6,115.1 238.4,115.1 238.4,119 	"/>
	<path class="st4" d="M253.4,115.1c0,0,0,0.1,0,0.1V140c0,3-2.4,5.4-5.4,5.4h-24c-3,0-5.4-2.4-5.4-5.4v-24.8h-4.9v25.2
		c0,5.1,4.2,9.3,9.3,9.3h25.9c5.1,0,9.3-4.2,9.3-9.3v-25.2H253.4z"/>
	<path class="st4" d="M206.2,132h-24.5v3.9h19.6v4c0,3-2.4,5.4-5.4,5.4h-25c-3,0-5.4-2.4-5.4-5.4v-13.4v-1.8c0-3,2.4-5.4,5.4-5.4h25
		c3,0,5.4,2.4,5.4,5.4c0,0,0,1,0,1.1h4.8v-1.4c0-5.1-4.2-9.3-9.3-9.3H170c-5.1,0-9.3,4.2-9.3,9.3v2.1v14.5h0
		c0.4,4.8,4.4,8.5,9.3,8.5h26.9c5.1,0,9.3-4.2,9.3-9.3L206.2,132z"/>
</g>
</svg>
