<?xml version="1.0" encoding="utf-8"?>
<!-- Generator: Adobe Illustrator 23.1.0, SVG Export Plug-In . SVG Version: 6.00 Build 0)  -->
<svg version="1.1" id="Isolation_Mode" xmlns="http://www.w3.org/2000/svg" xmlns:xlink="http://www.w3.org/1999/xlink" x="0px"
	 y="0px" viewBox="0 0 402.2 191" style="enable-background:new 0 0 402.2 191;" xml:space="preserve">
<style type="text/css">
	.st0{fill:#FF5436;}
	.st1{fill:url(#SVGID_1_);}
	.st2{fill:url(#SVGID_2_);}
	.st3{fill:url(#SVGID_3_);}
	.st4{fill:url(#SVGID_4_);}
	.st5{fill:url(#SVGID_5_);}
	.st6{fill:url(#SVGID_6_);}
	.st7{fill:url(#SVGID_7_);}
	.st8{fill:url(#SVGID_8_);}
	.st9{fill:url(#SVGID_9_);}
	.st10{fill:#FFFFFF;}
</style>
<g>
	<polygon class="st0" points="0,0 106,183 212,1 	"/>
	<g>
		<linearGradient id="SVGID_1_" gradientUnits="userSpaceOnUse" x1="173.5204" y1="103.6297" x2="252.3775" y2="56.3154">
			<stop  offset="0" style="stop-color:#004592"/>
			<stop  offset="0.107" style="stop-color:#224786"/>
			<stop  offset="0.344" style="stop-color:#784C67"/>
			<stop  offset="0.6904" style="stop-color:#FF5436"/>
		</linearGradient>
		<polygon class="st1" points="246.4,51.9 242,44.5 214.4,92 223.1,92 		"/>
		<linearGradient id="SVGID_2_" gradientUnits="userSpaceOnUse" x1="168.5935" y1="95.4182" x2="247.4506" y2="48.1039">
			<stop  offset="0" style="stop-color:#004592"/>
			<stop  offset="0.107" style="stop-color:#224786"/>
			<stop  offset="0.344" style="stop-color:#784C67"/>
			<stop  offset="0.6904" style="stop-color:#FF5436"/>
		</linearGradient>
		<polygon class="st2" points="240,41 235.6,33.6 201.8,92 210.3,92 		"/>
		<linearGradient id="SVGID_3_" gradientUnits="userSpaceOnUse" x1="178.4565" y1="111.8566" x2="257.3137" y2="64.5423">
			<stop  offset="0" style="stop-color:#004592"/>
			<stop  offset="0.107" style="stop-color:#224786"/>
			<stop  offset="0.344" style="stop-color:#784C67"/>
			<stop  offset="0.6904" style="stop-color:#FF5436"/>
		</linearGradient>
		<polygon class="st3" points="252.8,62.7 248.5,55.4 227.1,92 235.7,92 		"/>
		<linearGradient id="SVGID_4_" gradientUnits="userSpaceOnUse" x1="158.6876" y1="78.9084" x2="237.5448" y2="31.5942">
			<stop  offset="0" style="stop-color:#004592"/>
			<stop  offset="0.107" style="stop-color:#224786"/>
			<stop  offset="0.344" style="stop-color:#784C67"/>
			<stop  offset="0.6904" style="stop-color:#FF5436"/>
		</linearGradient>
		<polygon class="st4" points="222.6,11.8 176.2,92 184.8,92 227,19.2 		"/>
		<linearGradient id="SVGID_5_" gradientUnits="userSpaceOnUse" x1="163.6414" y1="87.1647" x2="242.4985" y2="39.8504">
			<stop  offset="0" style="stop-color:#004592"/>
			<stop  offset="0.107" style="stop-color:#224786"/>
			<stop  offset="0.344" style="stop-color:#784C67"/>
			<stop  offset="0.6904" style="stop-color:#FF5436"/>
		</linearGradient>
		<polygon class="st5" points="229.1,22.7 189,92 197.7,92 233.5,30.2 		"/>
		<linearGradient id="SVGID_6_" gradientUnits="userSpaceOnUse" x1="192.7959" y1="135.7556" x2="271.6531" y2="88.4413">
			<stop  offset="0" style="stop-color:#004592"/>
			<stop  offset="0.107" style="stop-color:#224786"/>
			<stop  offset="0.344" style="stop-color:#784C67"/>
			<stop  offset="0.6904" style="stop-color:#FF5436"/>
		</linearGradient>
		<polygon class="st6" points="267.9,88 265.5,92 270.2,92 		"/>
		<linearGradient id="SVGID_7_" gradientUnits="userSpaceOnUse" x1="153.788" y1="70.7424" x2="232.6451" y2="23.4281">
			<stop  offset="0" style="stop-color:#004592"/>
			<stop  offset="0.107" style="stop-color:#224786"/>
			<stop  offset="0.344" style="stop-color:#784C67"/>
			<stop  offset="0.6904" style="stop-color:#FF5436"/>
		</linearGradient>
		<polygon class="st7" points="220.5,8.3 216.2,1 163.1,92 172.2,92 		"/>
		<linearGradient id="SVGID_8_" gradientUnits="userSpaceOnUse" x1="188.3791" y1="128.3942" x2="267.2362" y2="81.0799">
			<stop  offset="0" style="stop-color:#004592"/>
			<stop  offset="0.107" style="stop-color:#224786"/>
			<stop  offset="0.344" style="stop-color:#784C67"/>
			<stop  offset="0.6904" style="stop-color:#FF5436"/>
		</linearGradient>
		<polygon class="st8" points="265.8,84.6 261.4,77.2 252.7,92 261.4,92 		"/>
		<linearGradient id="SVGID_9_" gradientUnits="userSpaceOnUse" x1="183.4013" y1="120.0979" x2="262.2585" y2="72.7836">
			<stop  offset="0" style="stop-color:#004592"/>
			<stop  offset="0.107" style="stop-color:#224786"/>
			<stop  offset="0.344" style="stop-color:#784C67"/>
			<stop  offset="0.6904" style="stop-color:#FF5436"/>
		</linearGradient>
		<polygon class="st9" points="259.3,73.7 254.9,66.2 239.7,92 248.6,92 		"/>
	</g>
	<g>
		<g>
			<path class="st10" d="M195,127.5h7.6v17.3c-2.2,1.8-4.8,3.1-7.8,4.1c-3,1-6,1.4-9.2,1.4c-4.4,0-8.4-1-12-2.9
				c-3.6-1.9-6.3-4.6-8.4-8c-2-3.4-3-7.2-3-11.5c0-4.3,1-8.1,3-11.5c2-3.4,4.8-6,8.4-8s7.6-2.9,12.1-2.9c3.6,0,6.9,0.6,9.9,1.8
				c3,1.2,5.5,3,7.5,5.3l-5.1,5c-3.3-3.3-7.3-5-12-5c-3.1,0-5.8,0.6-8.2,1.9c-2.4,1.3-4.2,3.1-5.6,5.4c-1.3,2.3-2,5-2,7.9
				c0,2.9,0.7,5.5,2,7.8c1.3,2.3,3.2,4.1,5.6,5.5c2.4,1.3,5.1,2,8.1,2c3.4,0,6.4-0.7,8.9-2.2V127.5z"/>
			<path class="st10" d="M224.1,145.3c-3.3-3.4-5-8.2-5-14.5v-24.5h8.1v24.2c0,8.5,3.7,12.8,11,12.8c7.3,0,11-4.3,11-12.8v-24.2h7.9
				v24.5c0,6.3-1.7,11.1-5,14.5c-3.3,3.4-8,5.1-14,5.1S227.4,148.6,224.1,145.3z"/>
			<path class="st10" d="M308.3,142.9v6.8h-37v-5.4l25.5-31.2h-25.1v-6.8h35.8v5.4l-25.5,31.2H308.3z"/>
			<path class="st10" d="M354.4,142.9v6.8h-32.5v-43.4h31.7v6.8h-23.6v11.3h21v6.6h-21v12H354.4z"/>
			<path class="st10" d="M369.6,106.3h8.1v36.6h22.7v6.8h-30.8V106.3z"/>
		</g>
	</g>
	<g>
		<g>
			<path class="st10" d="M170.6,175.5c1-0.5,2.2-0.7,3.6-0.7v2.8c-0.2,0-0.4,0-0.7,0c-1.6,0-2.8,0.5-3.7,1.4c-0.9,0.9-1.3,2.3-1.3,4
				v7.9h-2.9v-15.9h2.8v2.7C168.9,176.7,169.6,176,170.6,175.5z"/>
			<path class="st10" d="M200.3,183.9h-12.9c0.2,1.4,0.8,2.5,1.8,3.4c1.1,0.9,2.4,1.3,3.9,1.3c1.9,0,3.4-0.6,4.6-1.9l1.6,1.9
				c-0.7,0.8-1.6,1.5-2.7,1.9c-1.1,0.4-2.3,0.7-3.6,0.7c-1.7,0-3.2-0.3-4.5-1c-1.3-0.7-2.3-1.7-3-2.9c-0.7-1.2-1.1-2.6-1.1-4.2
				c0-1.5,0.3-2.9,1-4.2c0.7-1.2,1.6-2.2,2.8-2.9c1.2-0.7,2.6-1,4.1-1c1.5,0,2.9,0.3,4.1,1c1.2,0.7,2.1,1.7,2.8,2.9
				c0.7,1.2,1,2.7,1,4.3C200.4,183.2,200.4,183.5,200.3,183.9z M189.1,178.5c-0.9,0.8-1.5,1.9-1.6,3.3h10.2
				c-0.2-1.3-0.7-2.4-1.6-3.3c-0.9-0.9-2.1-1.3-3.5-1.3C191.2,177.2,190,177.6,189.1,178.5z"/>
			<path class="st10" d="M223.3,176.4c1.2,1.1,1.8,2.7,1.8,4.8v9.6h-2.7v-2.1c-0.5,0.7-1.2,1.3-2.1,1.7c-0.9,0.4-1.9,0.6-3.2,0.6
				c-1.8,0-3.2-0.4-4.3-1.3c-1.1-0.9-1.6-2-1.6-3.4c0-1.4,0.5-2.5,1.5-3.4c1-0.8,2.6-1.3,4.9-1.3h4.6v-0.6c0-1.2-0.4-2.2-1.1-2.9
				s-1.8-1-3.2-1c-0.9,0-1.9,0.2-2.8,0.5c-0.9,0.3-1.7,0.7-2.3,1.2l-1.2-2.2c0.8-0.7,1.8-1.2,2.9-1.5c1.1-0.3,2.3-0.5,3.6-0.5
				C220.5,174.8,222.2,175.3,223.3,176.4z M220.5,188.1c0.8-0.5,1.4-1.2,1.7-2.1v-2.2h-4.4c-2.4,0-3.7,0.8-3.7,2.5
				c0,0.8,0.3,1.4,0.9,1.9c0.6,0.5,1.5,0.7,2.6,0.7C218.7,188.8,219.7,188.6,220.5,188.1z"/>
			<path class="st10" d="M238.5,168.6h2.9v22.3h-2.9V168.6z"/>
			<path class="st10" d="M285.5,183.9h-12.9c0.2,1.4,0.8,2.5,1.8,3.4c1.1,0.9,2.4,1.3,3.9,1.3c1.9,0,3.4-0.6,4.6-1.9l1.6,1.9
				c-0.7,0.8-1.6,1.5-2.7,1.9c-1.1,0.4-2.3,0.7-3.6,0.7c-1.7,0-3.2-0.3-4.5-1c-1.3-0.7-2.3-1.7-3-2.9c-0.7-1.2-1.1-2.6-1.1-4.2
				c0-1.5,0.3-2.9,1-4.2c0.7-1.2,1.6-2.2,2.8-2.9c1.2-0.7,2.6-1,4.1-1c1.5,0,2.9,0.3,4.1,1c1.2,0.7,2.1,1.7,2.8,2.9
				c0.7,1.2,1,2.7,1,4.3C285.5,183.2,285.5,183.5,285.5,183.9z M274.2,178.5c-0.9,0.8-1.5,1.9-1.6,3.3h10.2
				c-0.2-1.3-0.7-2.4-1.6-3.3c-0.9-0.9-2.1-1.3-3.5-1.3C276.3,177.2,275.1,177.6,274.2,178.5z"/>
			<path class="st10" d="M298.4,190.5c-1.2-0.3-2.1-0.8-2.8-1.3l1.2-2.3c0.7,0.5,1.5,0.9,2.5,1.2s2,0.5,3,0.5c2.5,0,3.8-0.7,3.8-2.2
				c0-0.5-0.2-0.9-0.5-1.1c-0.3-0.3-0.8-0.5-1.3-0.6c-0.5-0.1-1.2-0.3-2.2-0.4c-1.3-0.2-2.3-0.4-3.1-0.7c-0.8-0.3-1.5-0.7-2.1-1.3
				s-0.9-1.5-0.9-2.6c0-1.4,0.6-2.6,1.8-3.5c1.2-0.9,2.8-1.3,4.8-1.3c1.1,0,2.1,0.1,3.2,0.4c1.1,0.3,1.9,0.6,2.6,1l-1.2,2.3
				c-1.3-0.8-2.8-1.3-4.6-1.3c-1.2,0-2.2,0.2-2.8,0.6c-0.6,0.4-1,0.9-1,1.6c0,0.5,0.2,0.9,0.5,1.2c0.4,0.3,0.8,0.5,1.3,0.7
				c0.5,0.1,1.3,0.3,2.2,0.5c1.3,0.2,2.3,0.5,3.1,0.7c0.8,0.3,1.5,0.7,2,1.3c0.6,0.6,0.8,1.4,0.8,2.5c0,1.4-0.6,2.6-1.8,3.4
				c-1.2,0.8-2.9,1.3-5,1.3C300.9,191,299.6,190.8,298.4,190.5z"/>
			<path class="st10" d="M329.7,189.9c-0.4,0.4-0.9,0.6-1.6,0.8c-0.6,0.2-1.3,0.3-1.9,0.3c-1.6,0-2.8-0.4-3.7-1.3
				c-0.9-0.9-1.3-2.1-1.3-3.7v-8.7h-2.7v-2.4h2.7v-3.5h2.9v3.5h4.6v2.4h-4.6v8.6c0,0.9,0.2,1.5,0.6,2c0.4,0.5,1,0.7,1.8,0.7
				c0.9,0,1.6-0.3,2.3-0.8L329.7,189.9z"/>
			<path class="st10" d="M352.1,176.4c1.2,1.1,1.8,2.7,1.8,4.8v9.6h-2.7v-2.1c-0.5,0.7-1.2,1.3-2.1,1.7c-0.9,0.4-1.9,0.6-3.2,0.6
				c-1.8,0-3.2-0.4-4.3-1.3c-1.1-0.9-1.6-2-1.6-3.4c0-1.4,0.5-2.5,1.5-3.4c1-0.8,2.6-1.3,4.9-1.3h4.6v-0.6c0-1.2-0.4-2.2-1.1-2.9
				c-0.7-0.7-1.8-1-3.2-1c-0.9,0-1.9,0.2-2.8,0.5c-0.9,0.3-1.7,0.7-2.3,1.2l-1.2-2.2c0.8-0.7,1.8-1.2,2.9-1.5
				c1.1-0.3,2.3-0.5,3.6-0.5C349.3,174.8,351,175.3,352.1,176.4z M349.3,188.1c0.8-0.5,1.4-1.2,1.7-2.1v-2.2h-4.4
				c-2.4,0-3.7,0.8-3.7,2.5c0,0.8,0.3,1.4,0.9,1.9c0.6,0.5,1.5,0.7,2.6,0.7S348.5,188.6,349.3,188.1z"/>
			<path class="st10" d="M376.3,189.9c-0.4,0.4-0.9,0.6-1.6,0.8c-0.6,0.2-1.3,0.3-1.9,0.3c-1.6,0-2.8-0.4-3.7-1.3
				c-0.9-0.9-1.3-2.1-1.3-3.7v-8.7H365v-2.4h2.7v-3.5h2.9v3.5h4.6v2.4h-4.6v8.6c0,0.9,0.2,1.5,0.6,2c0.4,0.5,1,0.7,1.8,0.7
				c0.9,0,1.6-0.3,2.3-0.8L376.3,189.9z"/>
			<path class="st10" d="M402.2,183.9h-12.9c0.2,1.4,0.8,2.5,1.8,3.4c1,0.9,2.4,1.3,3.9,1.3c1.9,0,3.4-0.6,4.6-1.9l1.6,1.9
				c-0.7,0.8-1.6,1.5-2.7,1.9c-1.1,0.4-2.3,0.7-3.6,0.7c-1.7,0-3.2-0.3-4.5-1c-1.3-0.7-2.3-1.7-3-2.9s-1.1-2.6-1.1-4.2
				c0-1.5,0.3-2.9,1-4.2c0.7-1.2,1.6-2.2,2.9-2.9c1.2-0.7,2.6-1,4.1-1c1.5,0,2.9,0.3,4.1,1c1.2,0.7,2.1,1.7,2.8,2.9
				c0.7,1.2,1,2.7,1,4.3C402.2,183.2,402.2,183.5,402.2,183.9z M390.9,178.5c-0.9,0.8-1.5,1.9-1.6,3.3h10.2
				c-0.2-1.3-0.7-2.4-1.6-3.3c-0.9-0.9-2.1-1.3-3.5-1.3S391.8,177.6,390.9,178.5z"/>
		</g>
	</g>
</g>
</svg>
